<svg width="50" height="49" viewBox="0 0 50 49" fill="none" xmlns="http://www.w3.org/2000/svg">
<rect width="49" height="49" transform="translate(0.5)" fill="#FF004F"/>
<path d="M28.1953 14.834C28.1953 15.3145 28.1074 15.9531 27.9316 16.75C27.7676 17.5352 27.5566 18.4609 27.2988 19.5273C27.0527 20.5352 26.7715 21.7949 26.4551 23.3066C26.1387 24.8066 25.8047 26.6641 25.4531 28.8789H24.0996C23.748 26.6406 23.4141 24.7773 23.0977 23.2891C22.7812 21.8008 22.5 20.5527 22.2539 19.5449C22.0312 18.6191 21.8262 17.7168 21.6387 16.8379C21.4512 15.9473 21.3574 15.2793 21.3574 14.834C21.3574 13.9316 21.6914 13.1641 22.3594 12.5312C23.0273 11.8867 23.8301 11.5645 24.7676 11.5645C25.6934 11.5645 26.4961 11.8867 27.1758 12.5312C27.8555 13.1641 28.1953 13.9316 28.1953 14.834ZM28.1602 34.2578C28.1602 35.1484 27.8203 35.916 27.1406 36.5605C26.4727 37.1934 25.6875 37.5098 24.7852 37.5098C23.8711 37.5098 23.0742 37.1934 22.3945 36.5605C21.7266 35.916 21.3926 35.1484 21.3926 34.2578C21.3926 33.3672 21.7266 32.5996 22.3945 31.9551C23.0742 31.2988 23.8711 30.9707 24.7852 30.9707C25.6875 30.9707 26.4727 31.2988 27.1406 31.9551C27.8203 32.5996 28.1602 33.3672 28.1602 34.2578Z" fill="white"/>
</svg>
