<svg width="152" height="46" viewBox="0 0 152 46" fill="none" xmlns="http://www.w3.org/2000/svg">
<path d="M76.6575 25.1276C75.7097 25.1298 74.7837 25.4131 73.9969 25.9415C73.21 26.47 72.5975 27.2199 72.2368 28.0965C71.8761 28.973 71.7835 29.9369 71.9706 30.8661C72.1577 31.7953 72.6161 32.6482 73.2879 33.3168C73.9597 33.9855 74.8148 34.4399 75.7448 34.6227C76.6749 34.8054 77.6383 34.7083 78.5132 34.3435C79.388 33.9787 80.1351 33.3627 80.6598 32.5733C81.1846 31.7839 81.4635 30.8567 81.4613 29.9088C81.4704 29.2765 81.3523 28.6488 81.1138 28.0631C80.8754 27.4774 80.5215 26.9457 80.0733 26.4995C79.6251 26.0534 79.0917 25.7021 78.5049 25.4664C77.918 25.2307 77.2898 25.1155 76.6575 25.1276ZM76.6575 32.8114C76.0765 32.852 75.4968 32.7169 74.9936 32.4237C74.4904 32.1304 74.0871 31.6926 73.836 31.1671C73.585 30.6416 73.4978 30.0527 73.5859 29.477C73.674 28.9013 73.9332 28.3654 74.3299 27.939C74.7265 27.5126 75.2423 27.2154 75.8101 27.086C76.378 26.9566 76.9716 27.001 77.5139 27.2134C78.0561 27.4259 78.5219 27.7966 78.8507 28.2773C79.1795 28.758 79.3561 29.3265 79.3575 29.9088C79.3756 30.2779 79.3197 30.6468 79.193 30.9938C79.0662 31.3409 78.8713 31.659 78.6197 31.9295C78.368 32.2001 78.0648 32.4175 77.7278 32.5689C77.3908 32.7203 77.0269 32.8028 76.6575 32.8114ZM66.1725 25.1276C65.2247 25.1298 64.2987 25.4131 63.5119 25.9415C62.725 26.47 62.1125 27.2199 61.7518 28.0965C61.3911 28.973 61.2985 29.9369 61.4856 30.8661C61.6727 31.7953 62.1311 32.6482 62.8029 33.3168C63.4747 33.9855 64.3298 34.4399 65.2598 34.6227C66.1899 34.8054 67.1533 34.7083 68.0282 34.3435C68.903 33.9787 69.6501 33.3627 70.1748 32.5733C70.6996 31.7839 70.9785 30.8567 70.9763 29.9088C70.9854 29.2765 70.8673 28.6488 70.6288 28.0631C70.3904 27.4774 70.0365 26.9457 69.5883 26.4995C69.1401 26.0534 68.6067 25.7021 68.0199 25.4664C67.433 25.2307 66.8048 25.1155 66.1725 25.1276ZM66.1725 32.8114C65.5915 32.852 65.0118 32.7169 64.5086 32.4237C64.0054 32.1304 63.6021 31.6926 63.351 31.1671C63.1 30.6416 63.0128 30.0527 63.1009 29.477C63.189 28.9013 63.4482 28.3654 63.8449 27.939C64.2415 27.5126 64.7573 27.2154 65.3251 27.086C65.893 26.9566 66.4866 27.001 67.0289 27.2134C67.5711 27.4259 68.0369 27.7966 68.3657 28.2773C68.6945 28.758 68.8711 29.3265 68.8725 29.9088C68.8906 30.2779 68.8347 30.6468 68.708 30.9938C68.5812 31.3409 68.3863 31.659 68.1347 31.9295C67.883 32.2001 67.5798 32.4175 67.2428 32.5689C66.9058 32.7203 66.5419 32.8028 66.1725 32.8114ZM53.7075 26.6014V28.6264H58.5675C58.4913 29.5801 58.0948 30.4801 57.4425 31.1801C56.955 31.6768 56.3687 32.0656 55.7214 32.3214C55.0741 32.5772 54.3804 32.6943 53.685 32.6651C52.2529 32.6651 50.8793 32.0962 49.8666 31.0835C48.8539 30.0708 48.285 28.6973 48.285 27.2651C48.285 25.8329 48.8539 24.4594 49.8666 23.4467C50.8793 22.434 52.2529 21.8651 53.685 21.8651C55.058 21.8447 56.3838 22.3661 57.375 23.3163L58.8038 21.8876C58.1333 21.2244 57.3371 20.7017 56.462 20.3501C55.5869 19.9986 54.6505 19.8252 53.7075 19.8401C52.7074 19.8012 51.7097 19.9646 50.7742 20.3204C49.8387 20.6763 48.9847 21.2174 48.2634 21.9112C47.542 22.6051 46.9681 23.4374 46.5761 24.3583C46.1841 25.2793 45.9821 26.2698 45.9821 27.2707C45.9821 28.2716 46.1841 29.2622 46.5761 30.1831C46.9681 31.1041 47.542 31.9364 48.2634 32.6302C48.9847 33.3241 49.8387 33.8651 50.7742 34.221C51.7097 34.5769 52.7074 34.7403 53.7075 34.7013C54.6699 34.7398 55.6295 34.5742 56.5233 34.2155C57.4171 33.8568 58.225 33.3131 58.8938 32.6201C60.0752 31.3223 60.7046 29.6154 60.6488 27.8614C60.6528 27.4392 60.6189 27.0175 60.5475 26.6014H53.7075ZM104.681 28.1763C104.388 27.3132 103.839 26.5595 103.108 26.0151C102.377 25.4706 101.497 25.1611 100.586 25.1276C99.9709 25.1264 99.3618 25.2514 98.7967 25.495C98.2315 25.7385 97.7223 26.0953 97.3006 26.5434C96.8788 26.9916 96.5534 27.5214 96.3446 28.1003C96.1357 28.6791 96.0478 29.2947 96.0863 29.9088C96.0767 30.9358 96.3995 31.9383 97.0067 32.7666C97.6138 33.595 98.4726 34.2047 99.4548 34.5046C100.437 34.8046 101.49 34.7788 102.456 34.431C103.423 34.0832 104.25 33.4322 104.816 32.5751L103.185 31.4501C102.942 31.8554 102.597 32.1901 102.184 32.421C101.772 32.6519 101.306 32.7709 100.834 32.7664C100.346 32.7865 99.8639 32.6586 99.4503 32.3996C99.0366 32.1406 98.7111 31.7626 98.5163 31.3151L104.918 28.6714L104.681 28.1763ZM98.1563 29.7739C98.1335 29.4244 98.1806 29.0739 98.295 28.7429C98.4093 28.4119 98.5885 28.1071 98.8222 27.8462C99.0558 27.5853 99.3391 27.3737 99.6556 27.2237C99.972 27.0737 100.315 26.9883 100.665 26.9726C101.028 26.9505 101.388 27.0358 101.703 27.2179C102.017 27.4 102.27 27.6708 102.431 27.9963L98.1563 29.7739ZM92.9588 34.4088H95.0625V20.3463H92.9588V34.4088ZM89.5163 26.1964H89.4375C89.1233 25.8384 88.7354 25.5526 88.3005 25.3585C87.8655 25.1643 87.3938 25.0664 86.9175 25.0714C85.6881 25.131 84.5288 25.6613 83.6797 26.5525C82.8307 27.4437 82.3571 28.6274 82.3571 29.8582C82.3571 31.0891 82.8307 32.2728 83.6797 33.1639C84.5288 34.0551 85.6881 34.5855 86.9175 34.6451C87.3945 34.6547 87.8677 34.5588 88.3033 34.3643C88.7389 34.1698 89.1262 33.8816 89.4375 33.5201H89.5163V34.2063C89.5163 36.0401 88.5375 37.0189 86.9625 37.0189C86.4364 37.0073 85.9256 36.8396 85.4949 36.5372C85.0642 36.2347 84.7332 35.8111 84.5438 35.3201L82.7213 36.0739C83.0582 36.9201 83.6441 37.6442 84.4013 38.1504C85.1586 38.6566 86.0517 38.9211 86.9625 38.9089C89.4263 38.9089 91.4625 37.4576 91.4625 33.9251V25.4088H89.5163V26.1964ZM87.0975 32.8114C86.3604 32.7654 85.6686 32.4402 85.1629 31.902C84.6572 31.3638 84.3756 30.653 84.3756 29.9145C84.3756 29.176 84.6572 28.4652 85.1629 27.927C85.6686 27.3888 86.3604 27.0636 87.0975 27.0176C87.4578 27.0331 87.8112 27.121 88.1369 27.2759C88.4625 27.4309 88.7536 27.6497 88.9929 27.9195C89.2322 28.1892 89.4148 28.5044 89.5299 28.8461C89.6449 29.1879 89.69 29.5493 89.6625 29.9088C89.6932 30.2696 89.6504 30.6329 89.5367 30.9766C89.423 31.3204 89.2408 31.6375 89.001 31.9089C88.7612 32.1802 88.4689 32.4 88.1417 32.5552C87.8146 32.7103 87.4593 32.7974 87.0975 32.8114ZM114.536 20.3463H109.496V34.4088H111.6V29.0763H114.536C115.136 29.1194 115.738 29.0385 116.305 28.8387C116.872 28.6388 117.391 28.3243 117.831 27.9148C118.271 27.5052 118.622 27.0094 118.862 26.4583C119.102 25.9071 119.226 25.3125 119.226 24.7113C119.226 24.1102 119.102 23.5156 118.862 22.9644C118.622 22.4133 118.271 21.9175 117.831 21.5079C117.391 21.0984 116.872 20.7839 116.305 20.584C115.738 20.3842 115.136 20.3033 114.536 20.3463ZM114.536 27.0963H111.6V22.3038H114.581C114.897 22.3038 115.21 22.3661 115.503 22.4871C115.795 22.6081 116.06 22.7854 116.284 23.009C116.507 23.2325 116.685 23.4979 116.806 23.79C116.926 24.0821 116.989 24.3952 116.989 24.7113C116.989 25.0275 116.926 25.3406 116.806 25.6327C116.685 25.9248 116.507 26.1902 116.284 26.4137C116.06 26.6373 115.795 26.8146 115.503 26.9356C115.21 27.0566 114.897 27.1188 114.581 27.1188L114.536 27.0963ZM127.519 25.0826C126.753 25.0354 125.989 25.2137 125.324 25.5956C124.658 25.9775 124.119 26.5462 123.773 27.2313L125.629 28.0076C125.816 27.6694 126.098 27.3928 126.439 27.2111C126.781 27.0295 127.167 26.9505 127.553 26.9839C127.82 26.9527 128.09 26.975 128.349 27.0495C128.607 27.124 128.848 27.2492 129.057 27.4178C129.267 27.5864 129.44 27.795 129.568 28.0315C129.696 28.268 129.776 28.5275 129.803 28.7951V28.9301C129.126 28.5745 128.373 28.3892 127.609 28.3901C125.606 28.3901 123.559 29.5151 123.559 31.5626C123.579 31.9978 123.686 32.4246 123.874 32.8176C124.062 33.2106 124.327 33.5618 124.653 33.8504C124.979 34.139 125.36 34.359 125.773 34.4975C126.186 34.6359 126.623 34.69 127.058 34.6564C127.585 34.6856 128.112 34.5738 128.582 34.3326C129.053 34.0915 129.451 33.7295 129.735 33.2838H129.803V34.4088H131.828V28.9976C131.828 26.5338 129.96 25.1051 127.564 25.1051L127.519 25.0826ZM127.26 32.7889C126.574 32.7889 125.618 32.4401 125.618 31.5963C125.618 30.4713 126.81 30.0889 127.868 30.0889C128.536 30.0724 129.196 30.2355 129.78 30.5614C129.709 31.1723 129.42 31.7369 128.965 32.1507C128.51 32.5644 127.92 32.7991 127.305 32.8114L127.26 32.7889ZM139.208 25.4088L136.8 31.5063H136.733L134.235 25.4088H131.985L135.731 33.9364L133.594 38.6726H135.788L141.548 25.4088H139.208ZM120.308 34.4088H122.4V20.3463H120.308V34.4088Z" fill="black"/>
<path d="M11.745 9.14125C11.3743 9.57957 11.1851 10.143 11.2163 10.7163V35.6012C11.178 36.1754 11.368 36.7415 11.745 37.1762L11.8238 37.2662L25.7625 23.3275V22.99L11.8238 9.0625L11.745 9.14125Z" fill="url(#paint0_linear_151_2678)"/>
<path d="M30.375 27.9737L25.7625 23.3275V22.99L30.375 18.3438L30.4762 18.4113L36 21.5387C37.575 22.4275 37.575 23.89 36 24.79L30.4987 27.9175L30.375 27.9737Z" fill="url(#paint1_linear_151_2678)"/>
<path d="M30.51 27.9062L25.7625 23.1587L11.745 37.1762C12.0629 37.4592 12.4698 37.622 12.8951 37.6363C13.3205 37.6507 13.7375 37.5158 14.0737 37.2549L30.51 27.9062Z" fill="url(#paint2_linear_151_2678)"/>
<path d="M30.51 18.4112L14.0737 9.07372C13.7396 8.80925 13.323 8.67103 12.8971 8.68338C12.4712 8.69572 12.0632 8.85784 11.745 9.14122L25.7625 23.1587L30.51 18.4112Z" fill="url(#paint3_linear_151_2678)"/>
<path opacity="0.2" d="M30.375 27.8047L14.0737 37.0859C13.7497 37.3305 13.3547 37.4628 12.9487 37.4628C12.5427 37.4628 12.1478 37.3305 11.8237 37.0859L11.745 37.1647L11.8237 37.2547C12.1478 37.4993 12.5427 37.6316 12.9487 37.6316C13.3547 37.6316 13.7497 37.4993 14.0737 37.2547L30.51 27.9059L30.375 27.8047Z" fill="black"/>
<path opacity="0.12" d="M11.745 37.0184C11.3836 36.5722 11.2065 36.0047 11.25 35.4321V35.6009C11.2117 36.1751 11.4017 36.7411 11.7787 37.1759L11.8575 37.0971L11.745 37.0184Z" fill="black"/>
<path opacity="0.12" d="M36 24.6212L30.375 27.8049L30.4763 27.9062L36 24.7787C36.3261 24.6408 36.6089 24.4176 36.8188 24.1325C37.0286 23.8474 37.1577 23.511 37.1925 23.1587C37.1222 23.4788 36.9776 23.778 36.7705 24.032C36.5633 24.286 36.2994 24.4878 36 24.6212Z" fill="black"/>
<path opacity="0.25" d="M14.0737 9.23129L36 21.6963C36.2994 21.8296 36.5633 22.0315 36.7705 22.2855C36.9776 22.5395 37.1222 22.8387 37.1925 23.1588C37.1577 22.8065 37.0286 22.4701 36.8188 22.185C36.6089 21.8999 36.3261 21.6767 36 21.5388L14.0737 9.07379C12.51 8.17379 11.2162 8.91629 11.2162 10.7163V10.885C11.25 9.08504 12.51 8.34254 14.0737 9.23129Z" fill="white"/>
<path d="M47.3737 16.712H46.5525V14.462H47.25C47.5638 14.1213 47.7998 13.7164 47.9416 13.2754C48.0834 12.8345 48.1277 12.368 48.0712 11.9082V8.5332H52.5712V14.4507H53.325V16.7007H52.4925V15.2832H47.3737V16.712ZM48.9375 11.9082C48.9877 12.8119 48.7642 13.7097 48.2962 14.4845H51.6712V9.3657H48.9375V11.9082Z" fill="black" stroke="black" stroke-width="0.21285" stroke-miterlimit="10"/>
<path d="M60.0862 14.406C59.7623 14.7309 59.3774 14.9886 58.9536 15.1645C58.5299 15.3403 58.0756 15.4308 57.6168 15.4308C57.1581 15.4308 56.7038 15.3403 56.2801 15.1645C55.8563 14.9886 55.4714 14.7309 55.1475 14.406C54.5039 13.7339 54.1446 12.8392 54.1446 11.9085C54.1446 10.9779 54.5039 10.0832 55.1475 9.41104C55.4714 9.08619 55.8563 8.82846 56.2801 8.65261C56.7038 8.47675 57.1581 8.38623 57.6168 8.38623C58.0756 8.38623 58.5299 8.47675 58.9536 8.65261C59.3774 8.82846 59.7623 9.08619 60.0862 9.41104C60.4112 9.73954 60.6672 10.1297 60.8392 10.5586C61.0111 10.9875 61.0955 11.4465 61.0875 11.9085C61.1008 12.3712 61.0187 12.8317 60.8465 13.2614C60.6742 13.691 60.4155 14.0807 60.0862 14.406ZM55.7775 13.8435C56.0145 14.0897 56.2996 14.2847 56.615 14.4162C56.9304 14.5478 57.2695 14.6133 57.6112 14.6085C57.9532 14.6153 58.2929 14.5508 58.6086 14.4191C58.9243 14.2874 59.2092 14.0914 59.445 13.8435C59.9304 13.3161 60.1998 12.6254 60.1998 11.9085C60.1998 11.1917 59.9304 10.501 59.445 9.97354C59.2092 9.72571 58.9243 9.5297 58.6086 9.39799C58.2929 9.26628 57.9532 9.20176 57.6112 9.20854C57.2695 9.2038 56.9304 9.26925 56.615 9.40083C56.2996 9.53242 56.0145 9.72734 55.7775 9.97354C55.2992 10.5045 55.0345 11.1939 55.0345 11.9085C55.0345 12.6232 55.2992 13.3125 55.7775 13.8435Z" fill="black" stroke="black" stroke-width="0.21285" stroke-miterlimit="10"/>
<path d="M65.4525 15.4296C64.9973 15.4368 64.5454 15.3518 64.1239 15.1797C63.7024 15.0076 63.3201 14.7521 63 14.4284C62.3509 13.75 61.9886 12.8473 61.9886 11.9084C61.9886 10.9695 62.3509 10.0668 63 9.38839C63.3254 9.05914 63.715 8.80036 64.1447 8.62811C64.5743 8.45586 65.0348 8.37384 65.4975 8.38714C65.9685 8.37381 66.4363 8.46823 66.8652 8.6632C67.2941 8.85817 67.6729 9.14853 67.9725 9.51214L67.3763 10.0971C67.1552 9.81298 66.8693 9.58601 66.5423 9.43527C66.2154 9.28454 65.8571 9.21445 65.4975 9.23089C65.1512 9.22205 64.8068 9.28439 64.4856 9.41404C64.1643 9.54369 63.8731 9.7379 63.63 9.98464C63.1454 10.517 62.8768 11.211 62.8768 11.9309C62.8768 12.6508 63.1454 13.3448 63.63 13.8771C63.8731 14.1239 64.1643 14.3181 64.4856 14.4477C64.8068 14.5774 65.1512 14.6397 65.4975 14.6309C65.8841 14.6199 66.2636 14.5246 66.6094 14.3517C66.9553 14.1787 67.2593 13.9323 67.5 13.6296L68.1075 14.2259C67.7993 14.5952 67.4158 14.8944 66.9825 15.1034C66.5039 15.327 65.9807 15.4385 65.4525 15.4296Z" fill="black" stroke="black" stroke-width="0.21285" stroke-miterlimit="10"/>
<path d="M71.64 15.2832H70.7738V9.3657H68.8838V8.5332H73.5188V9.3657H71.64V15.2832Z" fill="black" stroke="black" stroke-width="0.21285" stroke-miterlimit="10"/>
<path d="M79.4813 8.5332L76.9275 14.2257C76.8656 14.4539 76.7548 14.666 76.6027 14.8471C76.4507 15.0283 76.2611 15.1742 76.0471 15.2748C75.8331 15.3754 75.5997 15.4282 75.3632 15.4297C75.1268 15.4311 74.8928 15.3812 74.6775 15.2832L74.9025 14.4845C75.0402 14.5618 75.1947 14.6043 75.3525 14.6082C75.519 14.6166 75.684 14.5733 75.825 14.4845C75.9617 14.3707 76.0664 14.2234 76.1288 14.057L76.3763 13.517L74.1263 8.5332H75.15L76.815 12.4032L78.4575 8.5332H79.4813Z" fill="black" stroke="black" stroke-width="0.21285" stroke-miterlimit="10"/>
<path d="M80.46 15.2832V8.5332H85.3425V15.2832H84.4762V9.3657H81.3262V15.2832H80.46Z" fill="black" stroke="black" stroke-width="0.21285" stroke-miterlimit="10"/>
<path d="M86.8838 15.2832V8.5332H87.75V11.4245H91.125V8.5332H92.0025V15.2832H91.125V12.2345H87.75V15.2832H86.8838Z" fill="black" stroke="black" stroke-width="0.21285" stroke-miterlimit="10"/>
<path d="M99.0675 14.406C98.7426 14.7312 98.3568 14.9892 97.9321 15.1652C97.5074 15.3412 97.0522 15.4318 96.5925 15.4318C96.1328 15.4318 95.6776 15.3412 95.2529 15.1652C94.8282 14.9892 94.4424 14.7312 94.1175 14.406C93.4739 13.7339 93.1146 12.8392 93.1146 11.9085C93.1146 10.9779 93.4739 10.0832 94.1175 9.41104C94.4415 9.08619 94.8263 8.82846 95.2501 8.65261C95.6738 8.47675 96.1281 8.38623 96.5869 8.38623C97.0457 8.38623 97.4999 8.47675 97.9237 8.65261C98.3474 8.82846 98.7323 9.08619 99.0563 9.41104C99.6948 10.0858 100.051 10.9795 100.051 11.9085C100.051 12.8375 99.6948 13.7312 99.0563 14.406H99.0675ZM94.7588 13.8435C94.9946 14.0914 95.2794 14.2874 95.5951 14.4191C95.9108 14.5508 96.2505 14.6153 96.5925 14.6085C96.9342 14.6133 97.2733 14.5478 97.5887 14.4162C97.9041 14.2847 98.1892 14.0897 98.4262 13.8435C98.9045 13.3125 99.1692 12.6232 99.1692 11.9085C99.1692 11.1939 98.9045 10.5045 98.4262 9.97354C98.1892 9.72734 97.9041 9.53242 97.5887 9.40083C97.2733 9.26925 96.9342 9.2038 96.5925 9.20854C96.2505 9.20176 95.9108 9.26628 95.5951 9.39799C95.2794 9.5297 94.9946 9.72571 94.7588 9.97354C94.2733 10.501 94.0039 11.1917 94.0039 11.9085C94.0039 12.6254 94.2733 13.3161 94.7588 13.8435Z" fill="black" stroke="black" stroke-width="0.21285" stroke-miterlimit="10"/>
<path d="M103.601 15.2833V8.53331H106.042C106.549 8.52823 107.038 8.71285 107.415 9.0508C107.603 9.21395 107.753 9.41641 107.854 9.64386C107.955 9.87131 108.005 10.1182 108 10.3671C108.003 10.6701 107.917 10.9673 107.752 11.2221C107.586 11.4636 107.357 11.6544 107.089 11.7733C107.414 11.8844 107.699 12.0876 107.91 12.3583C108.117 12.634 108.227 12.9699 108.225 13.3146C108.231 13.5739 108.179 13.8313 108.074 14.0685C107.969 14.3058 107.813 14.5169 107.617 14.6871C107.227 15.0504 106.711 15.248 106.177 15.2383L103.601 15.2833ZM104.467 11.4246H106.042C106.19 11.4331 106.337 11.4082 106.474 11.3517C106.61 11.2952 106.732 11.2086 106.83 11.0983C107.021 10.9114 107.13 10.6566 107.134 10.3896C107.144 10.1217 107.052 9.8599 106.875 9.65831C106.78 9.55339 106.664 9.47073 106.533 9.41626C106.403 9.3618 106.262 9.33688 106.121 9.3433H104.501L104.467 11.4246ZM104.467 14.4508H106.222C106.375 14.4559 106.526 14.4273 106.666 14.367C106.807 14.3067 106.931 14.2163 107.032 14.1021C107.227 13.8946 107.335 13.6213 107.336 13.3371C107.329 13.0552 107.217 12.7862 107.021 12.5833C106.913 12.4694 106.782 12.3796 106.636 12.3195C106.491 12.2594 106.335 12.2305 106.177 12.2346H104.467V14.4508Z" fill="black" stroke="black" stroke-width="0.21285" stroke-miterlimit="10"/>
<path d="M6.92308 1.351H144.952V-0.0336164H6.92308V1.351ZM151.183 7.58177V38.7356H152.567V7.58177H151.183ZM144.952 44.9664H6.92308V46.351H144.952V44.9664ZM0.692308 38.7356V7.58177H-0.692308V38.7356H0.692308ZM6.92308 44.9664C3.48192 44.9664 0.692308 42.1768 0.692308 38.7356H-0.692308C-0.692308 42.9415 2.71722 46.351 6.92308 46.351V44.9664ZM151.183 38.7356C151.183 42.1768 148.393 44.9664 144.952 44.9664V46.351C149.158 46.351 152.567 42.9415 152.567 38.7356H151.183ZM144.952 1.351C148.393 1.351 151.183 4.14061 151.183 7.58177H152.567C152.567 3.37591 149.158 -0.0336164 144.952 -0.0336164V1.351ZM6.92308 -0.0336164C2.71722 -0.0336164 -0.692308 3.37591 -0.692308 7.58177H0.692308C0.692308 4.14061 3.48192 1.351 6.92308 1.351V-0.0336164Z" fill="#2E348C"/>
<defs>
<linearGradient id="paint0_linear_151_2678" x1="24.525" y1="10.4575" x2="5.64752" y2="29.335" gradientUnits="userSpaceOnUse">
<stop stop-color="#00A0FF"/>
<stop offset="0.01" stop-color="#00A1FF"/>
<stop offset="0.26" stop-color="#00BEFF"/>
<stop offset="0.51" stop-color="#00D2FF"/>
<stop offset="0.76" stop-color="#00DFFF"/>
<stop offset="1" stop-color="#00E3FF"/>
</linearGradient>
<linearGradient id="paint1_linear_151_2678" x1="38.0587" y1="23.1587" x2="10.845" y2="23.1587" gradientUnits="userSpaceOnUse">
<stop stop-color="#FFE000"/>
<stop offset="0.41" stop-color="#FFBD00"/>
<stop offset="0.78" stop-color="#FFA500"/>
<stop offset="1" stop-color="#FF9C00"/>
</linearGradient>
<linearGradient id="paint2_linear_151_2678" x1="27.9337" y1="25.7462" x2="2.32874" y2="51.3399" gradientUnits="userSpaceOnUse">
<stop stop-color="#FF3A44"/>
<stop offset="1" stop-color="#C31162"/>
</linearGradient>
<linearGradient id="paint3_linear_151_2678" x1="8.2125" y1="0.861219" x2="19.6425" y2="12.2912" gradientUnits="userSpaceOnUse">
<stop stop-color="#32A071"/>
<stop offset="0.07" stop-color="#2DA771"/>
<stop offset="0.48" stop-color="#15CF74"/>
<stop offset="0.8" stop-color="#06E775"/>
<stop offset="1" stop-color="#00F076"/>
</linearGradient>
</defs>
</svg>
