<svg width="153" height="46" viewBox="0 0 153 46" fill="none" xmlns="http://www.w3.org/2000/svg">
<g clip-path="url(#clip0_151_2822)">
<path d="M146.45 1.55869C147.703 1.55869 148.905 2.0565 149.791 2.94261C150.677 3.82872 151.175 5.03054 151.175 6.28369V40.0337C151.175 41.2868 150.677 42.4887 149.791 43.3748C148.905 44.2609 147.703 44.7587 146.45 44.7587H5.82495C4.5718 44.7587 3.36998 44.2609 2.48387 43.3748C1.59776 42.4887 1.09995 41.2868 1.09995 40.0337V6.28369C1.09995 5.03054 1.59776 3.82872 2.48387 2.94261C3.36998 2.0565 4.5718 1.55869 5.82495 1.55869H146.45ZM146.45 0.658691H5.82495C4.33311 0.658691 2.90237 1.25132 1.84748 2.30622C0.792583 3.36111 0.199951 4.79185 0.199951 6.28369V40.0337C0.199951 41.5255 0.792583 42.9563 1.84748 44.0112C2.90237 45.0661 4.33311 45.6587 5.82495 45.6587H146.45C147.942 45.6587 149.373 45.0661 150.427 44.0112C151.482 42.9563 152.075 41.5255 152.075 40.0337V6.28369C152.075 4.79185 151.482 3.36111 150.427 2.30622C149.373 1.25132 147.942 0.658691 146.45 0.658691Z" fill="#2E348C"/>
<path d="M48.1436 25.2938H50.7754L53.2335 32.0135H53.2736L55.705 25.2938H58.3502V34.7522H56.6803V27.1507H56.6535L53.7813 34.7522H52.6056L49.7735 27.1507H49.7467V34.7522H48.1436V25.2938Z" fill="black"/>
<path d="M60.3798 28.3397H61.9829V34.7522H60.3798V28.3397ZM60.1526 26.1621C60.1526 25.9038 60.2462 25.6812 60.4332 25.4941C60.6291 25.2982 60.8741 25.2002 61.168 25.2002C61.4619 25.2002 61.7068 25.2937 61.9027 25.4808C62.1076 25.6589 62.21 25.886 62.21 26.1621C62.21 26.4382 62.1076 26.6698 61.9027 26.8568C61.7068 27.0349 61.4619 27.124 61.168 27.124C60.8741 27.124 60.6291 27.0305 60.4332 26.8434C60.2462 26.6475 60.1526 26.4204 60.1526 26.1621Z" fill="black"/>
<path d="M68.3096 30.1165C68.1849 29.9384 67.9979 29.7914 67.7485 29.6756C67.4991 29.5509 67.2453 29.4886 66.987 29.4886C66.6931 29.4886 66.4348 29.5509 66.2122 29.6756C65.9895 29.7914 65.8025 29.9473 65.6511 30.1432C65.5086 30.3391 65.4017 30.5618 65.3305 30.8112C65.2592 31.0516 65.2236 31.2966 65.2236 31.5459C65.2236 31.7953 65.2592 32.0447 65.3305 32.2941C65.4106 32.5345 65.5264 32.7527 65.6778 32.9487C65.8292 33.1446 66.0162 33.3049 66.2389 33.4296C66.4705 33.5454 66.7376 33.6033 67.0405 33.6033C67.2898 33.6033 67.5392 33.5543 67.7886 33.4563C68.038 33.3584 68.2383 33.2159 68.3897 33.0288L69.3917 34.0441C69.1245 34.3291 68.7816 34.5518 68.363 34.7121C67.9533 34.8635 67.508 34.9392 67.0271 34.9392C66.5551 34.9392 66.1053 34.8635 65.6778 34.7121C65.2592 34.5607 64.8896 34.338 64.569 34.0441C64.2572 33.7502 64.0079 33.394 63.8208 32.9754C63.6427 32.5568 63.5537 32.0803 63.5537 31.5459C63.5537 31.0294 63.6427 30.5618 63.8208 30.1432C64.0079 29.7246 64.2572 29.3684 64.569 29.0745C64.8807 28.7805 65.2414 28.5534 65.6511 28.3931C66.0697 28.2328 66.515 28.1527 66.987 28.1527C67.459 28.1527 67.9133 28.2417 68.3497 28.4198C68.795 28.598 69.1468 28.8429 69.4051 29.1546L68.3096 30.1165Z" fill="black"/>
<path d="M70.4508 28.3397H71.9872V29.4084H72.0139C72.192 29.0344 72.4414 28.7316 72.762 28.5C73.0826 28.2684 73.4567 28.1527 73.8842 28.1527C73.9466 28.1527 74.0133 28.1571 74.0846 28.166C74.1558 28.166 74.2182 28.1749 74.2716 28.1927V29.6623C74.1648 29.6355 74.0712 29.6177 73.9911 29.6088C73.9198 29.5999 73.8486 29.5955 73.7773 29.5955C73.4122 29.5955 73.1183 29.6623 72.8956 29.7959C72.673 29.9295 72.4993 30.0898 72.3746 30.2768C72.2499 30.4638 72.1653 30.6553 72.1208 30.8513C72.0762 31.0472 72.054 31.203 72.054 31.3188V34.7522H70.4508V28.3397Z" fill="black"/>
<path d="M74.7082 31.5192C74.7082 31.0116 74.7973 30.5529 74.9754 30.1432C75.1624 29.7246 75.4118 29.3684 75.7235 29.0745C76.0352 28.7805 76.4049 28.5534 76.8324 28.3931C77.2599 28.2328 77.7141 28.1527 78.195 28.1527C78.6759 28.1527 79.1302 28.2328 79.5577 28.3931C79.9852 28.5534 80.3548 28.7805 80.6665 29.0745C80.9782 29.3684 81.2231 29.7246 81.4013 30.1432C81.5883 30.5529 81.6818 31.0116 81.6818 31.5192C81.6818 32.0269 81.5883 32.49 81.4013 32.9086C81.2231 33.3272 80.9782 33.6879 80.6665 33.9907C80.3548 34.2846 79.9852 34.5162 79.5577 34.6854C79.1302 34.8546 78.6759 34.9392 78.195 34.9392C77.7141 34.9392 77.2599 34.8546 76.8324 34.6854C76.4049 34.5162 76.0352 34.2846 75.7235 33.9907C75.4118 33.6879 75.1624 33.3272 74.9754 32.9086C74.7973 32.49 74.7082 32.0269 74.7082 31.5192ZM76.3381 31.5192C76.3381 31.7686 76.3737 32.018 76.4449 32.2673C76.5251 32.5167 76.6409 32.7394 76.7923 32.9353C76.9437 33.1313 77.1352 33.2916 77.3667 33.4163C77.5983 33.5409 77.8744 33.6033 78.195 33.6033C78.5156 33.6033 78.7917 33.5409 79.0233 33.4163C79.2549 33.2916 79.4463 33.1313 79.5977 32.9353C79.7491 32.7394 79.8605 32.5167 79.9317 32.2673C80.0119 32.018 80.052 31.7686 80.052 31.5192C80.052 31.2698 80.0119 31.0249 79.9317 30.7845C79.8605 30.5351 79.7491 30.3124 79.5977 30.1165C79.4463 29.9205 79.2549 29.7647 79.0233 29.6489C78.7917 29.5242 78.5156 29.4619 78.195 29.4619C77.8744 29.4619 77.5983 29.5242 77.3667 29.6489C77.1352 29.7647 76.9437 29.9205 76.7923 30.1165C76.6409 30.3124 76.5251 30.5351 76.4449 30.7845C76.3737 31.0249 76.3381 31.2698 76.3381 31.5192Z" fill="black"/>
<path d="M86.7497 30.0497C86.6072 29.8627 86.4113 29.7023 86.1619 29.5688C85.9125 29.4263 85.6409 29.355 85.347 29.355C85.0887 29.355 84.8527 29.4084 84.6389 29.5153C84.4252 29.6222 84.3183 29.8003 84.3183 30.0497C84.3183 30.2991 84.4341 30.4772 84.6656 30.5841C84.9061 30.682 85.2535 30.7845 85.7077 30.8913C85.9481 30.9448 86.1886 31.016 86.4291 31.1051C86.6785 31.1941 86.9011 31.3144 87.097 31.4658C87.3019 31.6083 87.4667 31.7909 87.5913 32.0135C87.716 32.2273 87.7784 32.49 87.7784 32.8017C87.7784 33.1936 87.7027 33.5276 87.5513 33.8037C87.4088 34.0709 87.2128 34.2891 86.9635 34.4583C86.723 34.6275 86.438 34.7477 86.1085 34.819C85.7878 34.8991 85.4538 34.9392 85.1065 34.9392C84.6078 34.9392 84.1224 34.8502 83.6503 34.672C83.1783 34.485 82.7864 34.2223 82.4747 33.8838L83.5301 32.8952C83.7082 33.1268 83.9398 33.3183 84.2248 33.4697C84.5098 33.6211 84.826 33.6968 85.1733 33.6968C85.2891 33.6968 85.4049 33.6834 85.5206 33.6567C85.6453 33.63 85.7567 33.5899 85.8546 33.5365C85.9615 33.4741 86.0461 33.394 86.1085 33.296C86.1708 33.198 86.202 33.0778 86.202 32.9353C86.202 32.6681 86.0773 32.4766 85.8279 32.3609C85.5874 32.2451 85.2223 32.1293 84.7324 32.0135C84.492 31.9601 84.256 31.8933 84.0244 31.8131C83.8017 31.7241 83.6013 31.6127 83.4232 31.4791C83.2451 31.3366 83.1026 31.163 82.9957 30.9581C82.8888 30.7533 82.8354 30.4995 82.8354 30.1966C82.8354 29.8404 82.9067 29.5331 83.0492 29.2748C83.2006 29.0166 83.3965 28.8073 83.637 28.647C83.8774 28.4777 84.1491 28.353 84.4519 28.2729C84.7547 28.1927 85.0664 28.1527 85.387 28.1527C85.8502 28.1527 86.2999 28.2328 86.7363 28.3931C87.1817 28.5534 87.5335 28.7984 87.7917 29.1279L86.7497 30.0497Z" fill="black"/>
<path d="M88.7982 31.5192C88.7982 31.0116 88.8872 30.5529 89.0654 30.1432C89.2524 29.7246 89.5018 29.3684 89.8135 29.0745C90.1252 28.7805 90.4948 28.5534 90.9223 28.3931C91.3498 28.2328 91.804 28.1527 92.285 28.1527C92.7659 28.1527 93.2201 28.2328 93.6476 28.3931C94.0751 28.5534 94.4447 28.7805 94.7565 29.0745C95.0682 29.3684 95.3131 29.7246 95.4912 30.1432C95.6783 30.5529 95.7718 31.0116 95.7718 31.5192C95.7718 32.0269 95.6783 32.49 95.4912 32.9086C95.3131 33.3272 95.0682 33.6879 94.7565 33.9907C94.4447 34.2846 94.0751 34.5162 93.6476 34.6854C93.2201 34.8546 92.7659 34.9392 92.285 34.9392C91.804 34.9392 91.3498 34.8546 90.9223 34.6854C90.4948 34.5162 90.1252 34.2846 89.8135 33.9907C89.5018 33.6879 89.2524 33.3272 89.0654 32.9086C88.8872 32.49 88.7982 32.0269 88.7982 31.5192ZM90.428 31.5192C90.428 31.7686 90.4636 32.018 90.5349 32.2673C90.6151 32.5167 90.7308 32.7394 90.8822 32.9353C91.0336 33.1313 91.2251 33.2916 91.4567 33.4163C91.6883 33.5409 91.9643 33.6033 92.285 33.6033C92.6056 33.6033 92.8817 33.5409 93.1133 33.4163C93.3448 33.2916 93.5363 33.1313 93.6877 32.9353C93.8391 32.7394 93.9504 32.5167 94.0217 32.2673C94.1018 32.018 94.1419 31.7686 94.1419 31.5192C94.1419 31.2698 94.1018 31.0249 94.0217 30.7845C93.9504 30.5351 93.8391 30.3124 93.6877 30.1165C93.5363 29.9205 93.3448 29.7647 93.1133 29.6489C92.8817 29.5242 92.6056 29.4619 92.285 29.4619C91.9643 29.4619 91.6883 29.5242 91.4567 29.6489C91.2251 29.7647 91.0336 29.9205 90.8822 30.1165C90.7308 30.3124 90.6151 30.5351 90.5349 30.7845C90.4636 31.0249 90.428 31.2698 90.428 31.5192Z" fill="black"/>
<path d="M97.58 29.6222H96.3643V28.3397H97.58V27.3912C97.58 27.0082 97.6201 26.643 97.7002 26.2957C97.7893 25.9395 97.9318 25.6277 98.1277 25.3605C98.3326 25.0934 98.5998 24.8841 98.9293 24.7327C99.2588 24.5723 99.673 24.4922 100.172 24.4922C100.35 24.4922 100.497 24.5011 100.613 24.5189C100.737 24.5278 100.862 24.5501 100.987 24.5857L100.88 25.9484C100.791 25.9216 100.693 25.8994 100.586 25.8816C100.488 25.8637 100.381 25.8548 100.265 25.8548C100.034 25.8548 99.8466 25.8994 99.7041 25.9884C99.5616 26.0775 99.4503 26.1933 99.3701 26.3358C99.2989 26.4783 99.2499 26.6341 99.2232 26.8034C99.1965 26.9726 99.1831 27.1373 99.1831 27.2977V28.3397H100.666V29.6222H99.1831V34.7522H97.58V29.6222Z" fill="black"/>
<path d="M100.54 29.6222V28.3397H101.662V26.4827H103.239V28.3397H104.842V29.6222H103.239V32.6013C103.239 32.8863 103.288 33.1223 103.386 33.3094C103.492 33.4964 103.724 33.5899 104.08 33.5899C104.187 33.5899 104.303 33.581 104.428 33.5632C104.552 33.5365 104.664 33.5009 104.762 33.4563L104.815 34.7121C104.673 34.7655 104.503 34.8056 104.307 34.8323C104.111 34.868 103.924 34.8858 103.746 34.8858C103.319 34.8858 102.971 34.8279 102.704 34.7121C102.437 34.5874 102.223 34.4227 102.063 34.2178C101.912 34.0041 101.805 33.7636 101.742 33.4964C101.689 33.2203 101.662 32.9264 101.662 32.6147V29.6222H100.54Z" fill="black"/>
<path d="M114.245 27.2709C114.067 27.0394 113.813 26.8479 113.483 26.6965C113.163 26.5362 112.837 26.456 112.508 26.456C112.312 26.456 112.116 26.4827 111.92 26.5362C111.724 26.5807 111.546 26.6564 111.386 26.7633C111.225 26.8612 111.092 26.9948 110.985 27.1641C110.887 27.3244 110.838 27.5203 110.838 27.7519C110.838 27.9656 110.883 28.1482 110.972 28.2996C111.061 28.451 111.181 28.5802 111.332 28.687C111.493 28.7939 111.684 28.8874 111.907 28.9676C112.129 29.0477 112.374 29.1279 112.642 29.208C112.944 29.306 113.256 29.4173 113.577 29.542C113.906 29.6667 114.205 29.8315 114.472 30.0363C114.748 30.2412 114.971 30.4995 115.14 30.8112C115.318 31.1229 115.407 31.5103 115.407 31.9734C115.407 32.4811 115.313 32.9264 115.126 33.3094C114.939 33.6834 114.69 33.9952 114.378 34.2445C114.067 34.4939 113.701 34.6809 113.283 34.8056C112.864 34.9303 112.423 34.9927 111.96 34.9927C111.346 34.9927 110.744 34.8813 110.157 34.6587C109.569 34.4271 109.088 34.0887 108.714 33.6434L109.916 32.5212C110.148 32.8418 110.455 33.0956 110.838 33.2827C111.23 33.4697 111.613 33.5632 111.987 33.5632C112.183 33.5632 112.383 33.5409 112.588 33.4964C112.793 33.443 112.976 33.3584 113.136 33.2426C113.305 33.1268 113.439 32.9843 113.537 32.8151C113.643 32.637 113.697 32.4188 113.697 32.1605C113.697 31.9111 113.639 31.7063 113.523 31.5459C113.407 31.3767 113.252 31.2342 113.056 31.1184C112.86 30.9938 112.628 30.8869 112.361 30.7978C112.094 30.7088 111.813 30.6152 111.519 30.5173C111.234 30.4282 110.949 30.3213 110.664 30.1966C110.379 30.072 110.121 29.9072 109.889 29.7023C109.667 29.4975 109.484 29.2481 109.342 28.9542C109.199 28.6514 109.128 28.2773 109.128 27.832C109.128 27.3511 109.226 26.937 109.422 26.5896C109.627 26.2423 109.889 25.9573 110.21 25.7346C110.54 25.503 110.909 25.3338 111.319 25.227C111.738 25.1112 112.161 25.0533 112.588 25.0533C113.069 25.0533 113.554 25.1379 114.044 25.3071C114.543 25.4763 114.975 25.7302 115.34 26.0686L114.245 27.2709Z" fill="black"/>
<path d="M116.013 29.6222V28.3397H117.135V26.4827H118.711V28.3397H120.315V29.6222H118.711V32.6013C118.711 32.8863 118.76 33.1223 118.858 33.3094C118.965 33.4964 119.197 33.5899 119.553 33.5899C119.66 33.5899 119.776 33.581 119.9 33.5632C120.025 33.5365 120.136 33.5009 120.234 33.4563L120.288 34.7121C120.145 34.7655 119.976 34.8056 119.78 34.8323C119.584 34.868 119.397 34.8858 119.219 34.8858C118.792 34.8858 118.444 34.8279 118.177 34.7121C117.91 34.5874 117.696 34.4227 117.536 34.2178C117.384 34.0041 117.278 33.7636 117.215 33.4964C117.162 33.2203 117.135 32.9264 117.135 32.6147V29.6222H116.013Z" fill="black"/>
<path d="M121.101 31.5192C121.101 31.0116 121.19 30.5529 121.368 30.1432C121.555 29.7246 121.804 29.3684 122.116 29.0745C122.428 28.7805 122.797 28.5534 123.225 28.3931C123.652 28.2328 124.107 28.1527 124.588 28.1527C125.068 28.1527 125.523 28.2328 125.95 28.3931C126.378 28.5534 126.747 28.7805 127.059 29.0745C127.371 29.3684 127.616 29.7246 127.794 30.1432C127.981 30.5529 128.074 31.0116 128.074 31.5192C128.074 32.0269 127.981 32.49 127.794 32.9086C127.616 33.3272 127.371 33.6879 127.059 33.9907C126.747 34.2846 126.378 34.5162 125.95 34.6854C125.523 34.8546 125.068 34.9392 124.588 34.9392C124.107 34.9392 123.652 34.8546 123.225 34.6854C122.797 34.5162 122.428 34.2846 122.116 33.9907C121.804 33.6879 121.555 33.3272 121.368 32.9086C121.19 32.49 121.101 32.0269 121.101 31.5192ZM122.731 31.5192C122.731 31.7686 122.766 32.018 122.837 32.2673C122.918 32.5167 123.033 32.7394 123.185 32.9353C123.336 33.1313 123.528 33.2916 123.759 33.4163C123.991 33.5409 124.267 33.6033 124.588 33.6033C124.908 33.6033 125.184 33.5409 125.416 33.4163C125.647 33.2916 125.839 33.1313 125.99 32.9353C126.142 32.7394 126.253 32.5167 126.324 32.2673C126.404 32.018 126.444 31.7686 126.444 31.5192C126.444 31.2698 126.404 31.0249 126.324 30.7845C126.253 30.5351 126.142 30.3124 125.99 30.1165C125.839 29.9205 125.647 29.7647 125.416 29.6489C125.184 29.5242 124.908 29.4619 124.588 29.4619C124.267 29.4619 123.991 29.5242 123.759 29.6489C123.528 29.7647 123.336 29.9205 123.185 30.1165C123.033 30.3124 122.918 30.5351 122.837 30.7845C122.766 31.0249 122.731 31.2698 122.731 31.5192Z" fill="black"/>
<path d="M129.629 28.3397H131.165V29.4084H131.192C131.37 29.0344 131.619 28.7316 131.94 28.5C132.26 28.2684 132.635 28.1527 133.062 28.1527C133.124 28.1527 133.191 28.1571 133.262 28.166C133.334 28.166 133.396 28.1749 133.449 28.1927V29.6623C133.343 29.6355 133.249 29.6177 133.169 29.6088C133.098 29.5999 133.026 29.5955 132.955 29.5955C132.59 29.5955 132.296 29.6623 132.073 29.7959C131.851 29.9295 131.677 30.0898 131.552 30.2768C131.428 30.4638 131.343 30.6553 131.299 30.8513C131.254 31.0472 131.232 31.203 131.232 31.3188V34.7522H129.629V28.3397Z" fill="black"/>
<path d="M138.776 30.9047C138.776 30.6998 138.744 30.5039 138.682 30.3169C138.629 30.1298 138.54 29.9651 138.415 29.8226C138.29 29.6801 138.13 29.5687 137.934 29.4886C137.747 29.3995 137.524 29.355 137.266 29.355C136.785 29.355 136.375 29.502 136.037 29.7959C135.707 30.0809 135.525 30.4505 135.489 30.9047H138.776ZM140.379 31.6261C140.379 31.6973 140.379 31.7686 140.379 31.8398C140.379 31.9111 140.374 31.9823 140.365 32.0536H135.489C135.507 32.2852 135.565 32.4989 135.663 32.6948C135.77 32.8819 135.908 33.0466 136.077 33.1891C136.246 33.3227 136.438 33.4296 136.651 33.5098C136.865 33.5899 137.088 33.63 137.319 33.63C137.72 33.63 138.059 33.5588 138.335 33.4163C138.611 33.2648 138.838 33.06 139.016 32.8017L140.085 33.6567C139.452 34.5117 138.535 34.9392 137.333 34.9392C136.834 34.9392 136.375 34.8635 135.957 34.7121C135.538 34.5518 135.173 34.3291 134.861 34.0441C134.558 33.7591 134.318 33.4118 134.14 33.0021C133.971 32.5835 133.886 32.1115 133.886 31.586C133.886 31.0695 133.971 30.6019 134.14 30.1833C134.318 29.7558 134.558 29.3951 134.861 29.1012C135.164 28.7984 135.52 28.5668 135.93 28.4065C136.349 28.2373 136.798 28.1527 137.279 28.1527C137.725 28.1527 138.134 28.2284 138.508 28.3798C138.891 28.5223 139.221 28.7405 139.497 29.0344C139.773 29.3194 139.987 29.6801 140.138 30.1165C140.299 30.544 140.379 31.0472 140.379 31.6261Z" fill="black"/>
<path d="M54.6269 20.6952H53.6601V18.5803H48.134V20.6952H47.1672V17.6794H47.7879C48.3299 16.7566 48.7986 15.6378 49.1942 14.3231C49.5897 13.0084 49.8222 11.7505 49.8918 10.5493H53.6052V17.6794H54.6269V20.6952ZM52.5999 17.6794V11.4612H50.7817C50.7121 12.373 50.4887 13.4369 50.1115 14.6527C49.738 15.8685 49.3187 16.8774 48.8536 17.6794H52.5999Z" fill="black"/>
<path d="M61.0759 15.5536C61.0759 16.5387 60.8268 17.3077 60.3288 17.8607C59.8307 18.4137 59.1423 18.6902 58.2634 18.6902C57.7177 18.6902 57.2343 18.5638 56.8132 18.3112C56.392 18.0548 56.0679 17.6886 55.8409 17.2125C55.6138 16.7365 55.5003 16.1835 55.5003 15.5536C55.5003 14.5721 55.7457 13.8086 56.2364 13.2629C56.7271 12.7136 57.4156 12.439 58.3018 12.439C59.1514 12.439 59.8253 12.7191 60.3233 13.2794C60.825 13.8361 61.0759 14.5941 61.0759 15.5536ZM56.522 15.5536C56.522 16.3116 56.6703 16.8884 56.967 17.2839C57.2673 17.6758 57.7086 17.8717 58.2908 17.8717C58.8658 17.8717 59.3034 17.6758 59.6037 17.2839C59.904 16.8884 60.0541 16.3116 60.0541 15.5536C60.0541 14.7955 59.9022 14.2261 59.5982 13.8452C59.2979 13.4607 58.8566 13.2684 58.2744 13.2684C57.1061 13.2684 56.522 14.0302 56.522 15.5536Z" fill="black"/>
<path d="M65.0639 18.6902C64.196 18.6902 63.5203 18.4247 63.0369 17.8937C62.5535 17.359 62.3118 16.5936 62.3118 15.5975C62.3118 14.5868 62.5554 13.8086 63.0424 13.2629C63.5331 12.7136 64.2308 12.439 65.1353 12.439C65.4283 12.439 65.7176 12.4701 66.0032 12.5323C66.2925 12.5909 66.5306 12.6678 66.7173 12.7631L66.4152 13.587C65.9062 13.3966 65.4722 13.3014 65.1133 13.3014C64.5054 13.3014 64.0568 13.4937 63.7675 13.8782C63.4782 14.259 63.3336 14.8285 63.3336 15.5865C63.3336 16.3153 63.4782 16.8738 63.7675 17.262C64.0568 17.6465 64.4853 17.8387 65.0529 17.8387C65.5839 17.8387 66.1058 17.7216 66.6185 17.4872V18.3661C66.201 18.5822 65.6828 18.6902 65.0639 18.6902Z" fill="black"/>
<path d="M72.216 13.3838H70.244V18.5803H69.2662V13.3838H67.3216V12.5488H72.216V13.3838Z" fill="black"/>
<path d="M72.4687 12.5488H73.5289L74.8307 15.9821C75.1054 16.7291 75.2739 17.2766 75.3361 17.6245H75.3801C75.413 17.489 75.4881 17.2363 75.6053 16.8665C75.7225 16.4929 75.8214 16.1945 75.9019 15.9711L77.1269 12.5488H78.1926L75.5943 19.4153C75.3416 20.0818 75.0413 20.5597 74.6934 20.849C74.3455 21.1383 73.9152 21.283 73.4025 21.283C73.1279 21.283 72.855 21.2518 72.584 21.1896V20.4041C72.7672 20.448 72.9869 20.47 73.2432 20.47C73.5582 20.47 73.8255 20.3821 74.0452 20.2063C74.265 20.0342 74.4444 19.7668 74.5836 19.4043L74.8967 18.6023L72.4687 12.5488Z" fill="black"/>
<path d="M80.1371 18.5803H79.1484V12.5488H84.246V18.5803H83.2573V13.3948H80.1371V18.5803Z" fill="black"/>
<path d="M87.1574 12.5488V15.0592H90.4313V12.5488H91.4201V18.5803H90.4313V15.8942H87.1574V18.5803H86.1686V12.5488H87.1574Z" fill="black"/>
<path d="M98.5832 15.5536C98.5832 16.5387 98.3342 17.3077 97.8361 17.8607C97.3381 18.4137 96.6496 18.6902 95.7707 18.6902C95.225 18.6902 94.7416 18.5638 94.3205 18.3112C93.8994 18.0548 93.5753 17.6886 93.3482 17.2125C93.1212 16.7365 93.0076 16.1835 93.0076 15.5536C93.0076 14.5721 93.253 13.8086 93.7437 13.2629C94.2344 12.7136 94.9229 12.439 95.8091 12.439C96.6588 12.439 97.3326 12.7191 97.8306 13.2794C98.3323 13.8361 98.5832 14.5941 98.5832 15.5536ZM94.0294 15.5536C94.0294 16.3116 94.1777 16.8884 94.4743 17.2839C94.7746 17.6758 95.2159 17.8717 95.7982 17.8717C96.3731 17.8717 96.8107 17.6758 97.111 17.2839C97.4113 16.8884 97.5615 16.3116 97.5615 15.5536C97.5615 14.7955 97.4095 14.2261 97.1055 13.8452C96.8052 13.4607 96.364 13.2684 95.7817 13.2684C94.6135 13.2684 94.0294 14.0302 94.0294 15.5536Z" fill="black"/>
<path d="M107.927 14.0704C107.927 14.4586 107.817 14.7552 107.597 14.9603C107.378 15.1617 107.065 15.2991 106.658 15.3723V15.4218C107.167 15.4913 107.537 15.6433 107.768 15.8777C108.002 16.1084 108.119 16.4197 108.119 16.8115C108.119 17.3828 107.909 17.8204 107.488 18.1244C107.07 18.4283 106.468 18.5803 105.68 18.5803H102.967V12.5488H105.669C107.174 12.5488 107.927 13.056 107.927 14.0704ZM107.131 16.7566C107.131 16.4197 106.999 16.1835 106.735 16.048C106.471 15.9125 106.085 15.8447 105.576 15.8447H103.956V17.7838H105.598C106.62 17.7838 107.131 17.4414 107.131 16.7566ZM106.96 14.1583C106.96 13.8763 106.85 13.6749 106.631 13.5541C106.415 13.4332 106.087 13.3728 105.647 13.3728H103.956V15.0262H105.466C106.004 15.0262 106.387 14.9603 106.614 14.8285C106.845 14.693 106.96 14.4696 106.96 14.1583Z" fill="black"/>
<path d="M21.8648 10.5396C22.7081 9.62266 23.9006 9.03009 25.1437 8.92933C25.4469 8.91553 25.7514 8.91783 26.0546 8.93025C27.2872 9.02595 28.4682 9.61208 29.3092 10.5152C30.1622 11.4142 30.6609 12.6361 30.6853 13.8746C30.6912 14.4622 30.6862 15.0497 30.6876 15.6372C31.0404 15.6372 31.3928 15.6372 31.7453 15.6372C31.7425 15.0202 31.7512 14.4033 31.7407 13.7868C31.7048 12.7696 31.3413 11.7763 30.7423 10.9569C31.7715 11.7146 32.4924 12.874 32.7169 14.1323C32.8136 14.6278 32.8016 15.1348 32.8002 15.6372C34.8517 15.6376 36.9031 15.6372 38.9551 15.6372C38.9564 21.4562 38.9569 27.2747 38.9555 33.0937C38.9546 33.4475 38.9909 33.8146 38.8653 34.1542C38.6261 34.8802 37.9176 35.4428 37.1456 35.4553C29.4472 35.453 21.7488 35.4543 14.0509 35.4543C13.1022 35.4415 12.2584 34.5903 12.241 33.6439C12.2419 27.6418 12.2405 21.6393 12.2414 15.6372C14.9977 15.6372 17.7536 15.6372 20.5094 15.6372C20.5108 15.0506 20.5062 14.464 20.5117 13.8779C20.5342 12.6495 21.0251 11.4367 21.8648 10.5396ZM24.9463 10.0142C24.0331 10.1605 23.1773 10.6357 22.5682 11.3318C21.9351 12.0477 21.5712 12.995 21.5652 13.9506C21.5629 14.5128 21.5648 15.075 21.5643 15.6372C21.9167 15.6372 22.2696 15.6372 22.622 15.6372C22.623 15.3368 22.617 15.0363 22.6322 14.7359C22.668 14.1291 22.8148 13.5291 23.0623 12.9738C23.5357 11.8361 24.6376 11.0282 25.8283 10.7784C26.626 10.6123 27.4832 10.6859 28.2239 11.0342C27.9773 11.0199 27.7311 10.9941 27.4841 11.0125C26.523 11.0631 25.5858 11.474 24.898 12.1485C24.1637 12.857 23.7179 13.8544 23.6807 14.8744C23.6733 15.1283 23.6784 15.3828 23.677 15.6372C25.6622 15.6372 27.6474 15.6372 29.6331 15.6372C29.6331 15.1205 29.6331 14.6039 29.6331 14.0877C29.634 13.4482 29.4845 12.8087 29.1969 12.2377C28.7778 11.3972 28.0619 10.7094 27.2053 10.3247C26.5032 10.0091 25.7082 9.88352 24.9463 10.0142ZM19.9913 19.9435C19.9918 21.6692 19.9904 23.3945 19.9923 25.1202C21.7171 25.1188 23.4423 25.1197 25.1676 25.1193C25.1676 23.3945 25.1667 21.6692 25.1681 19.9439C23.4423 19.9425 21.7171 19.9439 19.9913 19.9435ZM26.0289 19.9444C26.0316 21.6692 26.0298 23.3945 26.0298 25.1193C27.7546 25.1202 29.4799 25.1184 31.2047 25.1207C31.2074 23.3945 31.2056 21.6687 31.2056 19.943C29.4799 19.9444 27.7546 19.9416 26.0289 19.9444ZM19.9923 25.9814C19.9909 27.7067 19.9923 29.4324 19.9913 31.1577C21.7171 31.1573 23.4428 31.1596 25.1681 31.1568C25.1667 29.432 25.1681 27.7067 25.1676 25.9819C23.4423 25.9814 21.7171 25.9824 19.9923 25.9814ZM26.0298 25.9819C26.0298 27.7072 26.0307 29.432 26.0293 31.1573C27.7551 31.1591 29.4803 31.1577 31.2061 31.1577C31.2056 29.4324 31.2074 27.7067 31.2051 25.9814C29.4803 25.9828 27.7551 25.9814 26.0298 25.9819Z" fill="black"/>
</g>
<defs>
<clipPath id="clip0_151_2822">
<rect width="151.875" height="45" fill="white" transform="translate(0.199951 0.658691)"/>
</clipPath>
</defs>
</svg>
