<svg width="152" height="46" viewBox="0 0 152 46" fill="none" xmlns="http://www.w3.org/2000/svg">
<path d="M56.8722 31.0698H51.5669L50.2707 34.5821H47.9496L53.1344 21.4033H55.3349L60.6402 34.5821H58.1985L56.8722 31.0698ZM52.23 29.2686H56.1789L54.7621 25.486C54.5813 24.9757 54.3703 24.3753 54.1894 23.7449C54.0085 24.3153 53.8277 24.8856 53.6468 25.456L52.23 29.2686Z" fill="black"/>
<path d="M61.5746 27.1669C61.5746 26.4464 61.5445 25.6359 61.5143 24.7653H63.6244C63.7149 25.1856 63.745 25.5759 63.7751 25.9961C64.6493 25.0355 65.6441 24.5552 66.7895 24.5552C67.4527 24.5552 68.0556 24.7053 68.6283 25.0355C69.2011 25.3657 69.6532 25.8761 69.9848 26.5965C70.3164 27.317 70.4973 28.2176 70.4973 29.2983C70.4973 30.4391 70.2863 31.4298 69.8944 32.2403C69.5025 33.0508 68.9599 33.6813 68.2365 34.0715C67.5431 34.4918 66.7293 34.7019 65.7948 34.7019C65.1316 34.7019 64.4685 34.5819 63.8053 34.3717V38.4845L61.5445 38.6646V27.1669H61.5746ZM67.513 32.1803C67.9652 31.5799 68.2063 30.6793 68.2063 29.4785C68.2063 28.3677 68.0255 27.5872 67.6336 27.1069C67.2417 26.6266 66.7594 26.3564 66.1264 26.3564C65.6742 26.3564 65.2823 26.4464 64.9206 26.6566C64.5589 26.8667 64.1972 27.1369 63.8656 27.4971V32.7506C64.0766 32.8707 64.3479 32.9608 64.6493 33.0208C64.9508 33.0809 65.2522 33.1109 65.5235 33.1109C66.3675 33.1109 67.0307 32.8107 67.513 32.1803Z" fill="black"/>
<path d="M71.8539 27.1669C71.8539 26.4464 71.8237 25.6359 71.7936 24.7653H73.9037C73.9941 25.1856 74.0242 25.5759 74.0544 25.9961C74.9286 25.0355 75.9233 24.5552 77.0688 24.5552C77.7319 24.5552 78.3348 24.7053 78.9076 25.0355C79.4803 25.3657 79.9325 25.8761 80.264 26.5965C80.5956 27.317 80.7765 28.2176 80.7765 29.2983C80.7765 30.4391 80.5655 31.4298 80.1736 32.2403C79.7817 33.0508 79.2391 33.6813 78.5157 34.0715C77.8224 34.4918 77.0085 34.7019 76.074 34.7019C75.4109 34.7019 74.7477 34.5819 74.0845 34.3717V38.4845L71.8237 38.6646V27.1669H71.8539ZM77.7922 32.1803C78.2444 31.5799 78.4855 30.6793 78.4855 29.4785C78.4855 28.3677 78.3047 27.5872 77.9128 27.1069C77.5209 26.6266 77.0386 26.3564 76.4056 26.3564C75.9534 26.3564 75.5616 26.4464 75.1998 26.6566C74.8381 26.8667 74.4764 27.1369 74.1448 27.4971V32.7506C74.3558 32.8707 74.6271 32.9608 74.9285 33.0208C75.23 33.0809 75.5314 33.1109 75.8027 33.1109C76.6468 33.1109 77.3401 32.8107 77.7922 32.1803Z" fill="black"/>
<path d="M84.9061 33.9514C83.9415 33.411 83.1879 32.6605 82.6755 31.6398C82.163 30.6492 81.8917 29.4484 81.8917 28.0975C81.8917 26.6265 82.1932 25.3657 82.796 24.345C83.3989 23.3243 84.2128 22.5438 85.2678 22.0334C86.2927 21.5231 87.4683 21.2529 88.7645 21.2529C89.5181 21.2529 90.2416 21.343 90.9349 21.4931C91.6282 21.6732 92.2612 21.8833 92.8641 22.1835L92.2913 23.9247C91.0856 23.3543 89.9401 23.0841 88.855 23.0841C87.9506 23.0841 87.1368 23.2943 86.4434 23.6845C85.7501 24.0748 85.2075 24.6452 84.8458 25.3957C84.4539 26.1462 84.2731 27.0768 84.2731 28.1275C84.2731 29.0581 84.4238 29.8987 84.7252 30.6192C85.0267 31.3396 85.4788 31.91 86.1119 32.3603C86.7449 32.7806 87.5588 32.9907 88.5234 32.9907C88.9755 32.9907 89.3975 32.9607 89.8497 32.8707C90.3019 32.7806 90.6937 32.6905 91.0856 32.5404V29.8687H88.0411V28.1275H93.2861V33.6812C92.5325 34.0414 91.7488 34.3116 90.9047 34.4917C90.0607 34.6719 89.2468 34.7619 88.4329 34.7619C87.0463 34.7619 85.9009 34.4917 84.9061 33.9514Z" fill="black"/>
<path d="M101.214 34.5814C101.124 34.1911 101.093 33.7708 101.063 33.2905C100.702 33.7108 100.28 34.041 99.7068 34.3412C99.1642 34.6414 98.5312 34.7615 97.8077 34.7615C97.235 34.7615 96.7225 34.6414 96.2704 34.4313C95.8182 34.2211 95.4263 33.8909 95.155 33.4406C94.8838 32.9903 94.733 32.45 94.733 31.8195C94.733 30.8589 95.0646 30.1084 95.7579 29.538C96.4512 28.9676 97.5967 28.6975 99.1943 28.6975C99.7972 28.6975 100.4 28.7275 100.973 28.8175V28.6374C100.973 27.7668 100.792 27.1664 100.43 26.8062C100.069 26.446 99.5259 26.2658 98.8326 26.2658C98.3503 26.2658 97.8379 26.3259 97.2953 26.476C96.7527 26.6261 96.2704 26.7762 95.8484 26.9863L95.4866 25.3652C95.8785 25.1851 96.4211 25.005 97.0843 24.8549C97.7474 24.7048 98.4407 24.6147 99.1642 24.6147C100.008 24.6147 100.732 24.7348 101.335 25.005C101.937 25.2752 102.39 25.6955 102.721 26.3259C103.053 26.9563 103.234 27.7969 103.234 28.8476V32.7502C103.234 33.1704 103.264 33.7708 103.294 34.5814H101.214ZM99.8877 32.7502C100.37 32.54 100.732 32.2398 101.033 31.9096V30.0784C100.43 30.0183 99.9178 29.9883 99.5259 29.9883C98.5915 29.9883 97.9584 30.1384 97.5967 30.4386C97.235 30.7388 97.0541 31.1291 97.0541 31.6394C97.0541 32.1197 97.1747 32.48 97.446 32.7201C97.7173 32.9603 98.0489 33.0804 98.501 33.0804C98.9532 33.1104 99.4054 32.9903 99.8877 32.7502Z" fill="black"/>
<path d="M105.012 32.24V20.6523L107.243 20.4722V31.8498C107.243 32.27 107.303 32.5702 107.454 32.7504C107.605 32.9305 107.816 33.0205 108.147 33.0205C108.298 33.0205 108.479 32.9905 108.75 32.9305L109.021 34.5516C108.81 34.6416 108.539 34.7017 108.238 34.7617C107.936 34.8217 107.635 34.8518 107.363 34.8518C105.796 34.7617 105.012 33.9211 105.012 32.24Z" fill="black"/>
<path d="M110.619 32.24V20.6523L112.85 20.4722V31.8498C112.85 32.27 112.91 32.5702 113.061 32.7504C113.211 32.9305 113.422 33.0205 113.754 33.0205C113.905 33.0205 114.085 32.9905 114.357 32.9305L114.628 34.5516C114.417 34.6416 114.146 34.7017 113.844 34.7617C113.543 34.8217 113.241 34.8518 112.97 34.8518C111.403 34.7617 110.619 33.9211 110.619 32.24Z" fill="black"/>
<path d="M123.852 29.9588H117.401C117.492 32.0001 118.487 33.0508 120.355 33.0508C120.808 33.0508 121.29 32.9908 121.772 32.8707C122.254 32.7506 122.707 32.6005 123.159 32.4204L123.641 33.9514C122.526 34.4918 121.29 34.762 119.933 34.762C118.878 34.762 118.004 34.5518 117.281 34.1616C116.557 33.7713 116.015 33.2009 115.653 32.4504C115.291 31.6999 115.11 30.8294 115.11 29.7787C115.11 28.6979 115.291 27.7673 115.683 26.9868C116.075 26.2063 116.587 25.6059 117.281 25.1856C117.974 24.7653 118.758 24.5552 119.662 24.5552C120.597 24.5552 121.38 24.7653 121.983 25.2156C122.616 25.6359 123.068 26.2363 123.37 26.9568C123.671 27.6773 123.822 28.4878 123.822 29.3584V29.9588H123.852ZM121.652 28.5478C121.621 27.7673 121.41 27.1669 121.049 26.7767C120.687 26.3864 120.235 26.1763 119.632 26.1763C119.059 26.1763 118.577 26.3864 118.215 26.7767C117.823 27.1669 117.582 27.7673 117.462 28.5178H121.652V28.5478Z" fill="black"/>
<path d="M125.54 27.2265C125.54 26.6861 125.51 25.8756 125.48 24.7648H127.59C127.62 25.035 127.65 25.3652 127.68 25.7555C127.71 26.1458 127.741 26.446 127.741 26.6861C128.012 26.2658 128.253 25.9056 128.524 25.6054C128.765 25.3052 129.067 25.065 129.399 24.8849C129.73 24.7048 130.122 24.6147 130.544 24.6147C130.906 24.6147 131.177 24.6448 131.448 24.7348L131.177 26.6861C130.966 26.6261 130.725 26.5961 130.454 26.5961C129.911 26.5961 129.459 26.7161 129.067 26.9863C128.675 27.2565 128.253 27.7068 127.801 28.3072V34.6114H125.57V27.2265H125.54Z" fill="black"/>
<path d="M132.714 38.6039C132.383 38.5438 132.112 38.4838 131.901 38.3937L132.323 36.7727C132.473 36.8027 132.654 36.8627 132.895 36.8927C133.136 36.9228 133.347 36.9528 133.558 36.9528C134.553 36.9528 135.307 36.3224 135.789 35.0315L135.94 34.6713L132.323 24.7947H134.734L136.573 30.3184C136.874 31.249 137.055 31.9995 137.146 32.4798C137.326 31.7593 137.507 31.0689 137.748 30.3484L139.587 24.7646H141.848L138.231 34.7013C137.899 35.6319 137.507 36.4124 137.115 36.9828C136.724 37.5532 136.241 37.9735 135.729 38.2737C135.186 38.5438 134.553 38.6939 133.77 38.6939C133.408 38.6939 133.046 38.6639 132.714 38.6039Z" fill="black"/>
<path d="M49.0348 15.339C48.5223 15.0688 48.1606 14.6486 47.8893 14.1382C47.618 13.6279 47.4974 13.0275 47.4974 12.337C47.4974 11.6165 47.6482 10.9861 47.9194 10.4458C48.1907 9.90541 48.6128 9.48513 49.1252 9.21495C49.6678 8.91475 50.2707 8.76465 50.9941 8.76465C51.6874 8.76465 52.2602 8.91475 52.7726 9.18493C53.2549 9.45511 53.6468 9.87539 53.9181 10.3857C54.1894 10.8961 54.31 11.4965 54.31 12.1569C54.31 12.8774 54.1592 13.5078 53.888 14.0482C53.6167 14.5885 53.1946 15.0088 52.6822 15.279C52.1697 15.5792 51.5367 15.7293 50.8434 15.7293C50.1501 15.7593 49.5472 15.6092 49.0348 15.339ZM52.1095 14.4985C52.441 14.2883 52.6822 13.9881 52.8631 13.5979C53.0138 13.2076 53.1042 12.7573 53.1042 12.277C53.1042 11.7967 53.0439 11.3464 52.8932 10.9861C52.7425 10.5959 52.5315 10.2957 52.1999 10.0855C51.8683 9.84537 51.4764 9.75531 50.964 9.75531C50.4817 9.75531 50.0898 9.87539 49.7582 10.0855C49.4266 10.3257 49.1855 10.6259 49.0046 11.0161C48.8238 11.4064 48.7635 11.8267 48.7635 12.307C48.7635 12.7873 48.8539 13.2376 49.0046 13.6279C49.1554 14.0181 49.3965 14.3183 49.7281 14.5585C50.0597 14.7987 50.4515 14.8887 50.9338 14.8887C51.3559 14.8287 51.7779 14.7386 52.1095 14.4985Z" fill="black"/>
<path d="M56.6913 9.84466H54.5812L54.6716 8.854H60.0071L59.8865 9.84466H57.8669V15.6685H56.6913V9.84466Z" fill="black"/>
<path d="M66.3375 15.6693H65.0111L62.9915 12.6672H62.1776V15.6693H61.002V8.88473H62.1776V11.6766H62.7805L64.1972 9.63523C64.4082 9.33503 64.6192 9.12489 64.8302 8.97479C65.0413 8.82469 65.3126 8.76465 65.614 8.76465C65.8853 8.76465 66.1264 8.79467 66.3073 8.88473L66.0662 9.78533C65.9456 9.72529 65.825 9.69527 65.7044 9.69527C65.5537 9.69527 65.4331 9.72529 65.3427 9.78533C65.2523 9.84537 65.1317 9.96545 65.0413 10.1155L63.8054 11.8867L66.3375 15.6693Z" fill="black"/>
<path d="M67.2417 8.88428H69.0805C69.9547 8.88428 70.6178 9.0644 71.07 9.42464C71.5221 9.78488 71.7633 10.2952 71.7633 10.9557C71.7633 11.406 71.6729 11.7962 71.4619 12.1264C71.2509 12.4567 70.9796 12.7268 70.5877 12.907C70.226 13.0871 69.8039 13.1771 69.3216 13.1771C69.0503 13.1771 68.7489 13.1471 68.4173 13.0871V15.6688H67.2417V8.88428ZM70.1958 11.9163C70.437 11.6761 70.5575 11.3759 70.5575 10.9557C70.5575 10.5354 70.437 10.2352 70.1657 10.0551C69.9245 9.87494 69.5326 9.78488 69.0503 9.78488H68.4173V12.1865C68.7188 12.2465 68.9298 12.2465 69.0805 12.2465C69.5628 12.2465 69.9547 12.1264 70.1958 11.9163Z" fill="black"/>
<path d="M74.0241 15.339C73.5117 15.0688 73.1499 14.6486 72.8786 14.1382C72.6073 13.6279 72.4868 13.0275 72.4868 12.337C72.4868 11.6165 72.6375 10.9861 72.9088 10.4458C73.1801 9.90541 73.6021 9.48513 74.1145 9.21495C74.6571 8.91475 75.26 8.76465 75.9835 8.76465C76.6768 8.76465 77.2495 8.91475 77.762 9.18493C78.2443 9.45511 78.6361 9.87539 78.9074 10.3857C79.1787 10.8961 79.2993 11.4965 79.2993 12.1569C79.2993 12.8774 79.1486 13.5078 78.8773 14.0482C78.606 14.5885 78.184 15.0088 77.6715 15.279C77.1591 15.5792 76.5261 15.7293 75.8327 15.7293C75.1093 15.7593 74.5064 15.6092 74.0241 15.339ZM77.0686 14.4985C77.4002 14.2883 77.6414 13.9881 77.8222 13.5979C77.973 13.2076 78.0634 12.7573 78.0634 12.277C78.0634 11.7967 78.0031 11.3464 77.8524 10.9861C77.7017 10.5959 77.4907 10.2957 77.1591 10.0855C76.8275 9.84537 76.4356 9.75531 75.9232 9.75531C75.4409 9.75531 75.049 9.87539 74.7174 10.0855C74.3858 10.3257 74.1447 10.6259 73.9638 11.0161C73.7829 11.4064 73.7227 11.8267 73.7227 12.307C73.7227 12.7873 73.8131 13.2376 73.9638 13.6279C74.1145 14.0181 74.3557 14.3183 74.6873 14.5585C75.0189 14.7987 75.4107 14.8887 75.893 14.8887C76.3452 14.8287 76.7371 14.7386 77.0686 14.4985Z" fill="black"/>
<path d="M85.2678 15.669V11.9465C85.2678 11.4662 85.2979 10.9258 85.3281 10.3254L81.8917 15.669H80.5955V8.88446H81.6806V12.757C81.6806 13.1773 81.6806 13.6276 81.6505 14.138L85.0266 8.88446H86.3831V15.669H85.2678ZM82.6151 8.28406C82.374 8.16398 82.163 7.98386 82.0424 7.77372C81.9218 7.56358 81.8314 7.35344 81.8012 7.11328H82.6453C82.7357 7.62362 83.0371 7.86378 83.5194 7.86378C84.0017 7.86378 84.3032 7.62362 84.4238 7.11328H85.2678C85.2376 7.35344 85.1472 7.56358 85.0266 7.77372C84.9061 7.98386 84.6951 8.13396 84.4539 8.28406C84.2128 8.43416 83.8812 8.4942 83.5194 8.4942C83.1879 8.4942 82.8563 8.40414 82.6151 8.28406Z" fill="black"/>
<path d="M89.4879 9.84466H87.3779L87.4683 8.854H92.7736L92.6531 9.84466H90.6334V15.6685H89.4578V9.84466H89.4879Z" fill="black"/>
<path d="M93.7684 8.88428H97.7775L97.6569 9.84492H94.944V11.7062H97.5062V12.6068H94.944V14.6781H97.8077L97.7172 15.6388H93.7684V8.88428Z" fill="black"/>
<path d="M106.037 12.3066C106.278 12.4567 106.459 12.6368 106.61 12.907C106.76 13.1471 106.821 13.4473 106.821 13.7475C106.821 14.1378 106.73 14.468 106.549 14.7382C106.369 15.0384 106.067 15.2485 105.705 15.3986C105.344 15.5487 104.891 15.6388 104.379 15.6388H102.148V8.88428H104.289C105.012 8.88428 105.555 9.03438 105.916 9.30456C106.278 9.57474 106.459 9.965 106.459 10.4453C106.459 10.8356 106.338 11.1958 106.127 11.466C105.886 11.7362 105.585 11.9163 105.223 12.0364C105.524 12.0664 105.796 12.1565 106.037 12.3066ZM103.324 11.6461H104.047C104.289 11.6461 104.5 11.5861 104.68 11.496C104.861 11.406 105.012 11.2559 105.102 11.1058C105.193 10.9557 105.253 10.7755 105.253 10.5654C105.253 10.2952 105.163 10.0851 104.952 9.93498C104.741 9.78488 104.469 9.72484 104.078 9.72484H103.294V11.6461H103.324ZM105.283 14.498C105.525 14.2879 105.645 14.0177 105.645 13.6575C105.645 13.2672 105.525 12.997 105.253 12.7869C104.982 12.5767 104.62 12.4867 104.108 12.4867H103.324V14.7682H104.198C104.68 14.7982 105.042 14.7082 105.283 14.498Z" fill="black"/>
<path fill-rule="evenodd" clip-rule="evenodd" d="M31.3703 8.91406H18.8606C12.9524 8.91406 10.8121 11.0755 10.8121 16.9294V29.3877C10.8121 35.2716 12.9825 37.4031 18.8606 37.4031H31.3703C37.2785 37.4031 39.4188 35.2416 39.4188 29.3877V16.9294C39.4489 11.0755 37.2785 8.91406 31.3703 8.91406Z" fill="#C8102E"/>
<path d="M16.4793 23.1743H17.2328V26.8968H16.4793V25.3958H14.761V26.8968H14.0074V23.1743H14.761V24.6753H16.4793V23.1743ZM20.7597 25.3057C20.7597 25.9061 20.4583 26.2364 19.9157 26.2364C19.3731 26.2364 19.0716 25.9061 19.0716 25.2757V23.1743H18.318V25.3057C18.318 26.3564 18.8908 26.9568 19.9157 26.9568C20.9406 26.9568 21.5434 26.3564 21.5434 25.2757V23.1743H20.7898V25.3057H20.7597ZM29.5316 25.726L28.6876 23.1743H28.0545L27.2105 25.726L26.3966 23.1743H25.5827L26.8789 26.8968H27.5119L28.356 24.4352L29.2 26.8968H29.833L31.1292 23.1743H30.3455L29.5316 25.726ZM32.5158 25.3057H33.9025V24.6153H32.5158V23.8648H34.5355V23.1743H31.7924V26.8968H34.6259V26.2063H32.546V25.3057H32.5158ZM35.5001 26.8968H36.2537V23.1743H35.5001V26.8968ZM23.0205 26.1163L22.6889 26.8968H21.9052L23.5329 23.1743H24.1961L25.8239 26.8968H25.0401L24.7387 26.1163H23.0205ZM23.2918 25.4558H24.4373L23.8645 24.135L23.2918 25.4558Z" fill="white"/>
<path d="M25.1305 18.4307C22.508 18.4307 20.3677 16.2992 20.3677 13.6875H21.0309C21.0309 15.939 22.8697 17.7702 25.1305 17.7702C27.3913 17.7702 29.2301 15.939 29.2301 13.6875H29.8932C29.8932 16.2992 27.753 18.4307 25.1305 18.4307Z" fill="white"/>
<path d="M7.84806 1.351H144.752V-0.0336164H7.84806V1.351ZM150.983 7.58177V38.7356H152.367V7.58177H150.983ZM144.752 44.9664H7.84807V46.351H144.752V44.9664ZM1.6173 38.7356V7.58177H0.23268V38.7356H1.6173ZM7.84807 44.9664C4.40691 44.9664 1.6173 42.1768 1.6173 38.7356H0.23268C0.23268 42.9415 3.64221 46.351 7.84807 46.351V44.9664ZM150.983 38.7356C150.983 42.1768 148.193 44.9664 144.752 44.9664V46.351C148.958 46.351 152.367 42.9415 152.367 38.7356H150.983ZM144.752 1.351C148.193 1.351 150.983 4.14061 150.983 7.58177H152.367C152.367 3.37591 148.958 -0.0336164 144.752 -0.0336164V1.351ZM7.84806 -0.0336164C3.6422 -0.0336164 0.23268 3.37591 0.23268 7.58177H1.6173C1.6173 4.14061 4.40691 1.351 7.84806 1.351V-0.0336164Z" fill="#2E348C"/>
</svg>
