<svg width="136" height="46" viewBox="0 0 136 46" fill="none" xmlns="http://www.w3.org/2000/svg">
<g clip-path="url(#clip0_151_2679)">
<path d="M28.6002 23.034C28.6128 22.0575 28.8729 21.1001 29.3563 20.2508C29.8397 19.4016 30.5306 18.688 31.3649 18.1766C30.8349 17.4218 30.1357 16.8007 29.323 16.3625C28.5101 15.9243 27.6061 15.6811 26.6826 15.6523C24.7125 15.4461 22.8027 16.8279 21.7988 16.8279C20.7754 16.8279 19.2298 15.6728 17.5654 15.7069C16.4888 15.7416 15.4396 16.0538 14.52 16.6131C13.6003 17.1724 12.8417 17.9596 12.3179 18.8982C10.0491 22.8155 11.7414 28.5725 13.9148 31.739C15.0022 33.2895 16.2731 35.0214 17.936 34.96C19.5633 34.8927 20.171 33.9253 22.1352 33.9253C24.0812 33.9253 24.6514 34.96 26.3481 34.921C28.0942 34.8927 29.1943 33.3636 30.2436 31.7984C31.0249 30.6936 31.6261 29.4726 32.025 28.1805C31.0105 27.7527 30.1448 27.0365 29.5358 26.1213C28.9268 25.2061 28.6014 24.1324 28.6002 23.034Z" fill="black"/>
<path d="M25.3956 13.57C26.3477 12.4302 26.8167 10.9653 26.7031 9.48633C25.2486 9.63867 23.905 10.3319 22.9401 11.4279C22.4683 11.9633 22.107 12.5862 21.8768 13.2609C21.6465 13.9357 21.5519 14.6491 21.5983 15.3603C22.3259 15.3678 23.0456 15.2105 23.7033 14.9004C24.3611 14.5903 24.9397 14.1354 25.3956 13.57Z" fill="black"/>
<path d="M48.1231 31.1908H42.7831L41.5007 34.9668H39.2389L44.2968 20.9966H46.6468L51.7048 34.9668H49.4044L48.1231 31.1908ZM43.3362 29.4484H47.569L45.4823 23.3202H45.4239L43.3362 29.4484Z" fill="black"/>
<path d="M62.6283 29.8746C62.6283 33.0397 60.9294 35.0733 58.3657 35.0733C57.7163 35.1072 57.0704 34.958 56.5021 34.6428C55.9337 34.3277 55.4659 33.8593 55.152 33.2913H55.1035V38.3362H53.007V24.7813H55.0363V26.4754H55.0749C55.4031 25.9101 55.8789 25.4442 56.4516 25.1271C57.0243 24.81 57.6724 24.6537 58.3271 24.6747C60.9195 24.6747 62.6283 26.7182 62.6283 29.8746ZM60.4733 29.8746C60.4733 27.8124 59.4047 26.4567 57.7741 26.4567C56.1722 26.4567 55.0947 27.841 55.0947 29.8746C55.0947 31.9268 56.1722 33.3012 57.7741 33.3012C59.4047 33.3012 60.4733 31.9554 60.4733 29.8746H60.4733Z" fill="black"/>
<path d="M73.8708 29.8746C73.8708 33.0397 72.1714 35.0733 69.6077 35.0733C68.9583 35.1072 68.3124 34.958 67.744 34.6428C67.1757 34.3277 66.7078 33.8593 66.394 33.2913H66.3455V38.3362H64.2489V24.7813H66.2783V26.4754H66.3168C66.6451 25.9101 67.1208 25.4442 67.6935 25.1271C68.2662 24.81 68.9144 24.6537 69.5691 24.6747C72.1615 24.6747 73.8708 26.7182 73.8708 29.8746ZM71.7153 29.8746C71.7153 27.8124 70.6466 26.4567 69.0161 26.4567C67.4142 26.4567 66.3367 27.841 66.3367 29.8746C66.3367 31.9268 67.4142 33.3012 69.0161 33.3012C70.6466 33.3012 71.7153 31.9554 71.7153 29.8746Z" fill="black"/>
<path d="M81.2996 31.0744C81.455 32.4598 82.8046 33.3694 84.6489 33.3694C86.416 33.3694 87.6874 32.4597 87.6874 31.2106C87.6874 30.1262 86.9206 29.477 85.105 29.032L83.2893 28.5958C80.7168 27.9762 79.5226 26.7765 79.5226 24.8297C79.5226 22.4193 81.6291 20.7637 84.6191 20.7637C87.5805 20.7637 89.6099 22.4193 89.6782 24.8297H87.5618C87.4351 23.4355 86.2794 22.594 84.5905 22.594C82.9015 22.594 81.7458 23.4454 81.7458 24.6847C81.7458 25.6724 82.484 26.2535 84.2897 26.6985L85.8332 27.0764C88.7076 27.7542 89.9007 28.9056 89.9007 30.9491C89.9007 33.5627 87.8141 35.1997 84.4935 35.1997C81.3866 35.1997 79.289 33.6012 79.1534 31.0743L81.2996 31.0744Z" fill="black"/>
<path d="M94.4277 22.3706V24.781H96.37V26.4366H94.4277V32.0518C94.4277 32.9241 94.8166 33.3306 95.6705 33.3306C95.901 33.3266 96.1313 33.3104 96.3601 33.2822V34.9279C95.9763 34.9995 95.5861 35.0319 95.1956 35.0246C93.1277 35.0246 92.3212 34.2501 92.3212 32.2747V26.4366H90.8361V24.781H92.3212V22.3706H94.4277Z" fill="black"/>
<path d="M97.4938 29.8748C97.4938 26.67 99.3865 24.6562 102.338 24.6562C105.299 24.6562 107.183 26.67 107.183 29.8748C107.183 33.0883 105.309 35.0933 102.338 35.0933C99.3678 35.0933 97.4938 33.0882 97.4938 29.8748ZM105.047 29.8748C105.047 27.6764 104.037 26.3789 102.338 26.3789C100.639 26.3789 99.6289 27.6863 99.6289 29.8748C99.6289 32.0819 100.639 33.3695 102.338 33.3695C104.037 33.3695 105.047 32.0819 105.047 29.8748H105.047Z" fill="black"/>
<path d="M108.912 24.7812H110.912V26.5148H110.96C111.095 25.9734 111.413 25.4949 111.861 25.1598C112.308 24.8246 112.858 24.6533 113.417 24.6746C113.659 24.6738 113.9 24.6999 114.135 24.7526V26.7082C113.83 26.6153 113.512 26.5726 113.193 26.5819C112.889 26.5695 112.585 26.6231 112.303 26.7388C112.021 26.8546 111.768 27.0298 111.56 27.2524C111.353 27.475 111.196 27.7398 111.101 28.0286C111.006 28.3173 110.974 28.6232 111.009 28.9252V34.9666H108.912L108.912 24.7812Z" fill="black"/>
<path d="M123.802 31.9753C123.52 33.8243 121.714 35.0933 119.404 35.0933C116.432 35.0933 114.588 33.108 114.588 29.9231C114.588 26.7283 116.442 24.6562 119.315 24.6562C122.141 24.6562 123.918 26.592 123.918 29.6803V30.3966H116.704V30.5229C116.671 30.8978 116.718 31.2754 116.842 31.6307C116.967 31.9861 117.165 32.3109 117.425 32.5838C117.685 32.8567 118 33.0713 118.35 33.2134C118.699 33.3555 119.075 33.4218 119.452 33.408C119.948 33.4542 120.445 33.3398 120.87 33.0817C121.295 32.8236 121.625 32.4356 121.811 31.9753L123.802 31.9753ZM116.714 28.9354H121.821C121.84 28.5984 121.788 28.2611 121.67 27.9447C121.552 27.6284 121.37 27.3398 121.135 27.097C120.899 26.8543 120.616 26.6627 120.303 26.5342C119.99 26.4057 119.654 26.3431 119.315 26.3503C118.974 26.3483 118.636 26.4137 118.32 26.5428C118.004 26.6719 117.717 26.8621 117.475 27.1024C117.233 27.3428 117.041 27.6285 116.911 27.9431C116.78 28.2577 116.713 28.595 116.714 28.9354V28.9354Z" fill="black"/>
<path d="M41.8466 13.3188H42.7467C42.9017 13.338 43.0589 13.325 43.2086 13.2806C43.3583 13.2363 43.4971 13.1615 43.6163 13.0609C43.7356 12.9604 43.8326 12.8363 43.9014 12.6965C43.9702 12.5567 44.0091 12.4043 44.0159 12.2487C44.0159 11.6296 43.5488 11.2297 42.7566 11.2297C42.5979 11.2076 42.4363 11.2174 42.2814 11.2586C42.1265 11.2998 41.9815 11.3715 41.8549 11.4695C41.7283 11.5675 41.6226 11.6898 41.5442 11.8292C41.4657 11.9686 41.4161 12.1223 41.3982 12.2811H40.4099C40.4269 11.9928 40.5033 11.711 40.6342 11.4534C40.7652 11.1957 40.9479 10.9677 41.171 10.7836C41.3942 10.5994 41.6529 10.463 41.9312 10.3829C42.2095 10.3028 42.5013 10.2806 42.7885 10.3178C44.1139 10.3178 45.0471 11.0578 45.0471 12.1229C45.0502 12.4797 44.9305 12.8268 44.708 13.1062C44.4854 13.3857 44.1734 13.5805 43.8242 13.6582V13.7373C44.2382 13.7556 44.6282 13.9367 44.9087 14.2409C45.1893 14.545 45.3377 14.9476 45.3214 15.3606C45.2908 15.6574 45.201 15.9452 45.0574 16.2071C44.9138 16.4689 44.7192 16.6995 44.485 16.8854C44.2509 17.0713 43.9819 17.2086 43.6938 17.2895C43.4057 17.3703 43.1043 17.393 42.8073 17.3562C42.5097 17.3967 42.2069 17.377 41.9171 17.2983C41.6273 17.2196 41.3563 17.0835 41.1204 16.8981C40.8844 16.7128 40.6883 16.4819 40.5438 16.2194C40.3992 15.9568 40.3091 15.6679 40.2789 15.3699H41.2825C41.3431 16.0121 41.9348 16.4263 42.8073 16.4263C43.6799 16.4263 44.2495 15.961 44.2495 15.3051C44.2495 14.6399 43.7129 14.2301 42.7754 14.2301H41.8466V13.3188Z" fill="black"/>
<path d="M46.4617 15.7612C46.4617 14.8494 47.1437 14.3237 48.3511 14.249L49.7272 14.1699V13.7326C49.7272 13.1976 49.3735 12.8954 48.6872 12.8954C48.1275 12.8954 47.7408 13.1003 47.6284 13.4585H46.6578C46.7603 12.5884 47.5822 12.0303 48.7345 12.0303C50.0081 12.0303 50.7265 12.6625 50.7265 13.7326V17.1938H49.7602V16.4819H49.6809C49.5199 16.7373 49.2938 16.9455 49.0258 17.0852C48.7577 17.225 48.4572 17.2912 48.155 17.2773C47.9418 17.2994 47.7262 17.2767 47.5223 17.2107C47.3184 17.1447 47.1306 17.0367 46.9711 16.8939C46.8115 16.7511 46.6838 16.5765 46.596 16.3814C46.5083 16.1863 46.4625 15.975 46.4617 15.7612ZM49.7272 15.3284V14.9048L48.4866 14.9839C47.787 15.0306 47.4697 15.2679 47.4697 15.7145C47.4697 16.1705 47.8663 16.4358 48.4117 16.4358C48.5715 16.4519 48.733 16.4358 48.8864 16.3885C49.0398 16.3411 49.1822 16.2635 49.3049 16.1602C49.4276 16.0568 49.5283 15.93 49.6008 15.7871C49.6734 15.6442 49.7163 15.4882 49.7272 15.3284Z" fill="black"/>
<path d="M53.3871 12.9695V17.1937H52.3845V12.1279H55.7294V12.9694L53.3871 12.9695Z" fill="black"/>
<path d="M61.8053 14.6587C61.8053 16.2682 60.989 17.2773 59.7066 17.2773C59.3918 17.2987 59.0774 17.23 58.8004 17.0793C58.5234 16.9285 58.2954 16.702 58.1432 16.4264H58.0639V18.878H57.0613V12.128H58.0264V12.9652H58.1014C58.2563 12.6799 58.4873 12.4429 58.7688 12.2804C59.0503 12.1178 59.3714 12.036 59.6967 12.044C60.989 12.044 61.8053 13.0486 61.8053 14.6587ZM60.7741 14.6587C60.7741 13.5886 60.2662 12.9421 59.4168 12.9421C58.573 12.9421 58.0452 13.6024 58.0452 14.6631C58.0452 15.7189 58.5729 16.3797 59.4124 16.3797C60.2662 16.3797 60.7741 15.7332 60.7741 14.6587Z" fill="black"/>
<path d="M63.1406 19.0081V18.1473C63.2491 18.1611 63.3584 18.1673 63.4678 18.166C63.6814 18.1818 63.8933 18.1184 64.0628 17.9879C64.2324 17.8574 64.3477 17.6691 64.3866 17.459L64.4615 17.2124L62.6227 12.1279H63.7145L64.9882 16.1517H65.0675L66.3367 12.1279H67.3998L65.506 17.403C65.0719 18.6357 64.5916 19.0312 63.556 19.0312C63.4722 19.0312 63.2342 19.0219 63.1406 19.0081Z" fill="black"/>
<path d="M68.181 15.7563H69.1791C69.2772 16.2029 69.697 16.4358 70.2842 16.4358C70.9518 16.4358 71.3616 16.1424 71.3616 15.6865C71.3616 15.1982 70.9937 14.9653 70.2842 14.9653H69.524V14.1885H70.2709C70.8769 14.1885 71.1854 13.9562 71.1854 13.5327C71.1854 13.1608 70.8868 12.8768 70.2709 12.8768C69.7102 12.8768 69.3003 13.1141 69.2353 13.514H68.2691C68.3413 13.0545 68.5915 12.6416 68.9659 12.3641C69.3403 12.0867 69.8089 11.9668 70.2709 12.0303C71.4784 12.0303 72.1692 12.5747 72.1692 13.4305C72.1748 13.6688 72.0982 13.9019 71.9523 14.0906C71.8063 14.2794 71.5997 14.4125 71.3671 14.4676V14.5467C71.644 14.5823 71.8982 14.7181 72.0814 14.9282C72.2646 15.1383 72.364 15.4082 72.3609 15.6866C72.3609 16.6496 71.539 17.2867 70.2842 17.2867C69.1747 17.2867 68.2735 16.7797 68.181 15.7563Z" fill="black"/>
<path d="M73.8047 17.1937V12.1279H74.7984V15.6123H74.8778L77.2189 12.1279H78.2127V17.1937H77.2189V13.6908H77.144L74.7984 17.1937L73.8047 17.1937Z" fill="black"/>
<path d="M83.6871 12.9694H82.0873V17.1937H81.0837V12.9694H79.4839V12.1279H83.6871V12.9694Z" fill="black"/>
<path d="M89.0877 15.8261C88.9511 16.2891 88.6557 16.6895 88.2532 16.9574C87.8506 17.2252 87.3665 17.3436 86.8853 17.2917C86.5507 17.3005 86.2181 17.2366 85.9106 17.1044C85.6032 16.9722 85.3283 16.7748 85.1051 16.526C84.8818 16.2772 84.7155 15.983 84.6177 15.6637C84.5199 15.3444 84.4929 15.0077 84.5387 14.677C84.4941 14.3452 84.5216 14.0078 84.6191 13.6875C84.7167 13.3673 84.8821 13.0717 85.1042 12.8207C85.3263 12.5698 85.5999 12.3693 85.9064 12.233C86.213 12.0966 86.5453 12.0275 86.8809 12.0304C88.2944 12.0304 89.1483 12.9934 89.1483 14.5841V14.933H85.5611V14.989C85.5452 15.1749 85.5685 15.3621 85.6295 15.5386C85.6905 15.715 85.7878 15.8767 85.9152 16.0134C86.0427 16.1501 86.1973 16.2587 86.3693 16.3322C86.5413 16.4057 86.7269 16.4425 86.914 16.4402C87.1537 16.4688 87.3964 16.4257 87.6114 16.3163C87.8264 16.207 88.004 16.0363 88.1215 15.8261L89.0877 15.8261ZM85.5611 14.1936H88.1259C88.1385 14.0236 88.1154 13.8529 88.058 13.6925C88.0006 13.532 87.9102 13.3852 87.7925 13.2616C87.6749 13.138 87.5326 13.0404 87.3748 12.9749C87.2171 12.9094 87.0474 12.8775 86.8765 12.8813C86.7031 12.8789 86.5309 12.9113 86.3702 12.9764C86.2095 13.0415 86.0635 13.1381 85.9409 13.2604C85.8183 13.3828 85.7215 13.5284 85.6563 13.6886C85.591 13.8489 85.5587 14.0206 85.5611 14.1936H85.5611Z" fill="black"/>
<path d="M93.3381 12.1279H95.6285C96.6223 12.1279 97.2051 12.63 97.2051 13.4161C97.2066 13.6655 97.1222 13.9079 96.966 14.1026C96.8098 14.2974 96.5912 14.4328 96.3469 14.4861V14.5652C96.6435 14.5839 96.9217 14.7155 97.1239 14.9329C97.326 15.1502 97.4367 15.4367 97.4332 15.7331C97.4332 16.6169 96.7666 17.1937 95.6517 17.1937H93.3381V12.1279ZM94.3318 12.8953V14.2071H95.3256C95.9315 14.2071 96.2213 13.9747 96.2213 13.5463C96.2213 13.1513 95.969 12.8953 95.4369 12.8953L94.3318 12.8953ZM94.3318 14.9421V16.4263H95.5206C96.1134 16.4263 96.4306 16.1654 96.4306 15.6864C96.4306 15.1794 96.0715 14.9421 95.395 14.9421L94.3318 14.9421Z" fill="black"/>
</g>
<path d="M7.32307 1.351H128.477V-0.0336164H7.32307V1.351ZM134.708 7.58177V38.7356H136.092V7.58177H134.708ZM128.477 44.9664H7.32307V46.351H128.477V44.9664ZM1.0923 38.7356V7.58177H-0.292314V38.7356H1.0923ZM7.32307 44.9664C3.88191 44.9664 1.0923 42.1768 1.0923 38.7356H-0.292314C-0.292314 42.9415 3.11721 46.351 7.32307 46.351V44.9664ZM134.708 38.7356C134.708 42.1768 131.918 44.9664 128.477 44.9664V46.351C132.683 46.351 136.092 42.9415 136.092 38.7356H134.708ZM128.477 1.351C131.918 1.351 134.708 4.14061 134.708 7.58177H136.092C136.092 3.37591 132.683 -0.0336164 128.477 -0.0336164V1.351ZM7.32307 -0.0336164C3.11721 -0.0336164 -0.292314 3.37591 -0.292314 7.58177H1.0923C1.0923 4.14061 3.88191 1.351 7.32307 1.351V-0.0336164Z" fill="#2E348C"/>
<defs>
<clipPath id="clip0_151_2679">
<path d="M0.399994 7.58177C0.399994 3.75826 3.49956 0.658691 7.32307 0.658691H128.477C132.3 0.658691 135.4 3.75826 135.4 7.58177V38.7356C135.4 42.5591 132.3 45.6587 128.477 45.6587H7.32307C3.49956 45.6587 0.399994 42.5591 0.399994 38.7356V7.58177Z" fill="white"/>
</clipPath>
</defs>
</svg>
