<svg width="19" height="5" viewBox="0 0 19 5" fill="none" xmlns="http://www.w3.org/2000/svg">
<path d="M0.254 2.43C0.254 2.122 0.312 1.832 0.428 1.56C0.548 1.288 0.708 1.052 0.908 0.852C1.108 0.648 1.342 0.488 1.61 0.372C1.882 0.252 2.17 0.192 2.474 0.192C2.782 0.192 3.07 0.252 3.338 0.372C3.61 0.488 3.846 0.648 4.046 0.852C4.25 1.052 4.41 1.288 4.526 1.56C4.646 1.832 4.706 2.122 4.706 2.43C4.706 2.738 4.646 3.028 4.526 3.3C4.41 3.568 4.25 3.802 4.046 4.002C3.846 4.202 3.61 4.362 3.338 4.482C3.07 4.598 2.782 4.656 2.474 4.656C2.17 4.656 1.882 4.598 1.61 4.482C1.342 4.362 1.108 4.202 0.908 4.002C0.708 3.802 0.548 3.568 0.428 3.3C0.312 3.028 0.254 2.738 0.254 2.43ZM7.21494 2.43C7.21494 2.122 7.27294 1.832 7.38894 1.56C7.50894 1.288 7.66894 1.052 7.86894 0.852C8.06894 0.648 8.30294 0.488 8.57094 0.372C8.84294 0.252 9.13094 0.192 9.43494 0.192C9.74294 0.192 10.0309 0.252 10.2989 0.372C10.5709 0.488 10.8069 0.648 11.0069 0.852C11.2109 1.052 11.3709 1.288 11.4869 1.56C11.6069 1.832 11.6669 2.122 11.6669 2.43C11.6669 2.738 11.6069 3.028 11.4869 3.3C11.3709 3.568 11.2109 3.802 11.0069 4.002C10.8069 4.202 10.5709 4.362 10.2989 4.482C10.0309 4.598 9.74294 4.656 9.43494 4.656C9.13094 4.656 8.84294 4.598 8.57094 4.482C8.30294 4.362 8.06894 4.202 7.86894 4.002C7.66894 3.802 7.50894 3.568 7.38894 3.3C7.27294 3.028 7.21494 2.738 7.21494 2.43ZM14.1759 2.43C14.1759 2.122 14.2339 1.832 14.3499 1.56C14.4699 1.288 14.6299 1.052 14.8299 0.852C15.0299 0.648 15.2639 0.488 15.5319 0.372C15.8039 0.252 16.0919 0.192 16.3959 0.192C16.7039 0.192 16.9919 0.252 17.2599 0.372C17.5319 0.488 17.7679 0.648 17.9679 0.852C18.1719 1.052 18.3319 1.288 18.4479 1.56C18.5679 1.832 18.6279 2.122 18.6279 2.43C18.6279 2.738 18.5679 3.028 18.4479 3.3C18.3319 3.568 18.1719 3.802 17.9679 4.002C17.7679 4.202 17.5319 4.362 17.2599 4.482C16.9919 4.598 16.7039 4.656 16.3959 4.656C16.0919 4.656 15.8039 4.598 15.5319 4.482C15.2639 4.362 15.0299 4.202 14.8299 4.002C14.6299 3.802 14.4699 3.568 14.3499 3.3C14.2339 3.028 14.1759 2.738 14.1759 2.43Z" fill="#009DD9"/>
</svg>
