<svg width="24" height="24" viewBox="-1 -1 24 24" fill="none" xmlns="http://www.w3.org/2000/svg">
<g clip-path="url(#clip0_169_1354)">
<path d="M20.6835 6.08816L15.9211 1.31532L16.2487 0.987637C16.5612 0.674158 16.9325 0.425538 17.3414 0.256074C17.7502 0.0866108 18.1886 -0.000352452 18.6312 0.000185587C19.0737 0.000723626 19.5119 0.0887524 19.9203 0.259209C20.3288 0.429666 20.6995 0.679189 21.0112 0.993426C21.3245 1.30627 21.573 1.67781 21.7426 2.0868C21.9122 2.49579 21.9995 2.9342 21.9995 3.37695C21.9995 3.81971 21.9122 4.25812 21.7426 4.66711C21.573 5.07609 21.3245 5.44764 21.0112 5.76048L20.6835 6.08816ZM14.4447 2.79164L19.2129 7.55869L5.83579 20.9335L0 22L1.06526 16.1665L14.4459 2.79164H14.4447Z" fill="black"/>
</g>
<defs>
<clipPath id="clip0_169_1354">
<rect width="22" height="22" fill="white"/>
</clipPath>
</defs>
</svg>
