<svg width="36" height="36" viewBox="0 0 36 36" fill="none" xmlns="http://www.w3.org/2000/svg">
<g clip-path="url(#clip0_95_3520)">
<rect width="36" height="36" rx="5" fill=""/>
<path d="M21.5981 4.0162C21.5981 4.0162 30.3062 5.3814 29.6458 17.8142C29.6434 17.8603 30.6527 18.5317 30.7317 18.6034C31.4355 19.2412 32.0259 20.0579 32.2841 21.0133C33.2036 24.4156 29.9164 27.9212 27.2583 28.8516C26.2654 29.1991 25.2159 29.3679 24.1643 29.3985C17.3285 29.598 8.27818 25.2447 7.81335 16.743C7.7967 16.438 7.7926 16.1326 7.80043 15.828C7.84164 14.2137 8.23048 12.6416 8.81651 11.1819C8.81625 11.1819 12.6207 1.72687 21.5981 4.0162Z" fill="#A47539"/>
<g style="mix-blend-mode:multiply" opacity="0.5">
<path d="M29.867 17.9455C29.7727 18.1771 29.6785 18.4729 29.6522 18.6421C29.5398 19.3679 29.7876 20.1173 30.2181 20.656C30.6269 21.1676 31.2107 21.4992 31.7761 21.6243C31.9669 21.6666 32.1981 21.6882 32.4002 21.695C32.1879 19.5933 30.48 18.3323 29.867 17.9455Z" fill="#FEB3A4"/>
</g>
<g style="mix-blend-mode:multiply" opacity="0.5">
<path d="M17.5911 23.4694C19.2087 23.1206 20.2131 21.413 19.8344 19.6553C19.4558 17.8976 17.8375 16.7554 16.2199 17.1042C14.6023 17.4529 13.598 19.1605 13.9766 20.9182C14.3552 22.6759 15.9735 23.8181 17.5911 23.4694Z" fill="#FEB3A4"/>
</g>
<path opacity="0.3" d="M25.5103 18.5529C25.5103 18.5529 26.8917 17.236 27.9611 18.4741L25.5103 18.5529Z" fill="#633B1D"/>
<path d="M12.6301 25.1146C8.03134 27.4239 3.85796 21.6337 5.19502 18.3788C6.04792 16.3025 8.53441 16.141 9.97513 18.0374C10.8254 19.1566 11.5133 20.5873 11.9039 21.9559" fill="#A47539"/>
<path opacity="0.3" d="M8.84404 19.9477C9.43568 20.5508 9.91125 21.4454 10.4958 21.9444C10.3878 21.1094 10.2154 20.2177 9.81064 19.4652C9.39964 18.701 8.65218 18.0715 7.89108 18.1234C6.94784 18.1878 6.17116 19.2885 6.07126 20.2864C6.13098 19.6892 7.32996 19.285 7.78759 19.3415C8.50413 20.6948 8.78146 23.3619 8.78146 23.3619C9.37851 21.852 9.13687 20.6644 8.84404 19.9477Z" fill="#633B1D"/>
<path d="M24.6798 7.76504C22.5255 10.7513 17.6537 16.8899 10.959 19.0798C10.506 18.3056 9.69959 17.4938 8.24134 17.5203C6.41853 17.5535 5.75569 18.8807 5.75569 18.8807C5.75569 18.8807 3.63461 22.4311 8.53962 24.6874C9.89844 24.9529 10.3293 24.9529 11.423 24.4883C12.1631 25.0635 14.5118 27.0234 15.3337 27.3419C15.1238 28.459 14.7532 31.244 15.257 32.5182C14.2959 32.6067 11.9533 33.0955 10.0973 32.0868C9.91043 30.9505 9.74608 29.4625 10.0386 28.8951C9.68935 29.4665 9.05943 30.7708 9.05943 31.5227C7.99889 31.1578 5.63919 30.1424 4.6847 29.001C3.20435 22.0329 2.67348 5.14373 17.6537 3.71694C18.9683 3.56209 22.3201 3.69703 24.5472 5.21009C27.3311 7.10141 28.7231 9.62318 29.2534 12.1449C28.1155 11.6141 25.6078 9.99482 24.6798 7.76504Z" fill="#E2BA87"/>
<path d="M30.1482 31.5227C29.6975 30.8857 29.9604 27.9945 30.1482 27.0101C28.2922 28.5696 27.1986 29.3328 23.3872 29.4323C24.0501 30.4278 26.6352 30.7928 26.9334 30.9255L27.4637 30.5605V31.0914C28.1796 31.3303 29.5517 31.4785 30.1482 31.5227Z" fill="#E2BA87"/>
<mask id="mask0_95_3520" style="mask-type:alpha" maskUnits="userSpaceOnUse" x="17" y="3" width="13" height="10">
<path d="M24.3821 5.14377C22.155 3.63071 18.9689 3.56214 17.6543 3.71698C18.0173 5.68573 19.1372 9.8754 22.2279 10.8841C23.1341 9.70828 24.2158 8.61391 24.6804 7.76508C25.6084 9.99486 28.1161 11.6141 29.254 12.145C28.7237 9.62323 27.1661 7.0351 24.3821 5.14377Z" fill="#E2BA87"/>
</mask>
<g mask="url(#mask0_95_3520)">
<path d="M23.8805 7.42092C23.8805 7.42092 23.3319 6.76999 22.1353 6.87872C22.1353 6.87872 22.983 6.41785 23.5313 6.47207C23.5313 6.47207 22.0356 5.36027 19.8417 6.06542C19.8417 6.06542 21.3873 4.98073 22.6091 5.11628C22.6091 5.11628 21.3127 4.54697 20.49 4.68252C20.49 4.68252 21.1383 3.86893 21.9857 3.89604C21.9857 3.89604 21.3125 2.7029 20.2654 2.32336C20.2654 2.32336 22.3596 2.92008 22.9079 3.35384C24.1295 3.86893 25.2514 5.38767 25.2514 5.38767C24.8775 5.17079 24.279 5.22501 24.279 5.22501C25.2514 5.82172 25.9994 6.93323 25.9994 6.93323C25.5258 6.60791 24.9523 6.71635 24.9523 6.71635C25.8747 7.63838 26.1738 8.83151 26.1738 8.83151C26.0492 8.45197 25.1517 7.99081 25.1517 7.99081C25.5006 8.61463 25.5754 9.6177 25.5754 9.6177L24.8274 8.64145C24.8274 8.64145 23.3067 9.91591 22.9076 10.0786C22.9076 10.0786 24.0544 8.88544 24.1292 8.34324C24.1292 8.34324 22.4089 8.80411 21.0378 8.99417C21.0383 8.99359 22.958 7.52936 23.8805 7.42092Z" fill="#D9AC74"/>
</g>
<path d="M20.0402 10.685C19.1122 11.8574 16.0896 14.7066 11.4232 16.724C12.9036 15.7949 16.6995 13.2864 20.0402 10.685Z" fill="#D9AC74"/>
<path d="M7.71134 16.724C10.4157 10.9903 15.9085 7.74295 18.3168 6.836C12.1126 7.8978 7.97648 14.0252 6.68394 16.9563C6.92256 16.8501 7.4683 16.7572 7.71134 16.724Z" fill="#D9AC74"/>
<path d="M6.31938 23.6588C6.45195 23.8247 6.8364 24.0836 7.0485 24.1897C6.96302 25.6447 6.83343 28.4685 6.89989 29.7209C6.91744 29.8978 6.93408 30.0577 6.94908 30.1955C6.92677 30.0876 6.91072 29.9252 6.89989 29.7209C6.77516 28.4641 6.60431 26.3487 6.6508 25.1852C6.40776 26.07 5.99459 26.3664 6.28624 30.0296C5.97691 27.6627 5.49747 25.0923 6.31938 23.6588Z" fill="#D9AC74"/>
<path d="M28.4914 28.3042C28.677 28.2246 28.9885 28.0056 29.1211 27.906C28.8825 28.3042 28.9775 30.3061 29.0548 31.2573C28.8957 31.1246 28.7897 30.6269 28.7565 30.3946C28.6505 30.7397 28.4472 30.7596 28.4914 31.2573C28.1997 30.5937 28.4582 29.366 28.4914 28.3042Z" fill="#D9AC74"/>
<path d="M13.5775 27.7733C13.2593 30.6667 13.4118 31.4564 13.6769 32.6841H13.0141H12.3512C11.874 30.3482 13.0914 29.2333 13.5775 27.7733Z" fill="#D9AC74"/>
<path d="M26.9986 21.7415C27.6179 21.7587 28.2118 21.5812 28.7232 21.0484C28.9908 20.7699 29.2622 20.6166 29.6461 20.8549C30.5654 21.4254 30.7818 22.8508 30.5347 23.8066C30.2635 24.8553 29.4462 25.7008 28.5044 26.2523C25.97 27.7361 24.0261 27.4022 21.4327 26.4536C19.3914 25.7072 16.6316 24.2025 17.3311 21.6129C18.1974 18.4067 21.931 19.9461 24.0376 20.811C24.9321 21.1786 25.9986 21.7137 26.9986 21.7415Z" fill="white"/>
<mask id="mask1_95_3520" style="mask-type:alpha" maskUnits="userSpaceOnUse" x="17" y="19" width="14" height="9">
<path d="M26.9986 21.7415C27.6179 21.7587 28.2118 21.5811 28.7232 21.0484C28.9908 20.7699 29.2622 20.6165 29.6461 20.8548C30.5654 21.4254 30.7818 22.8508 30.5347 23.8065C30.2635 24.8553 29.4462 25.7008 28.5044 26.2522C25.97 27.736 24.0261 27.4021 21.4327 26.4536C19.3914 25.7072 16.6316 24.2025 17.3311 21.6129C18.1974 18.4066 21.931 19.9461 24.0376 20.811C24.9321 21.1786 25.9986 21.7136 26.9986 21.7415Z" fill="white"/>
</mask>
<g mask="url(#mask1_95_3520)">
<path fill-rule="evenodd" clip-rule="evenodd" d="M18.5438 25.3029L21.1969 18.5916L21.5662 18.7383L18.9131 25.4496L18.5438 25.3029ZM23.9953 27.4714L25.8278 20.4292L26.2122 20.5297L24.3797 27.5719L23.9953 27.4714ZM29.4494 25.7711L28.4383 20.6081L28.8281 20.5314L29.8392 25.6944L29.4494 25.7711Z" fill="#D1D3D4"/>
</g>
<path d="M23.356 16.4599C23.3545 17.248 22.9437 17.8877 22.0906 17.7565C21.4766 17.5918 21.0679 17.158 21.0695 16.3315C21.0712 15.4655 21.5744 14.9035 22.0962 14.9025C22.7936 14.9012 23.3575 15.6718 23.356 16.4599Z" fill="#2A1200"/>
<path fill-rule="evenodd" clip-rule="evenodd" d="M27.7396 15.9631C28.1141 15.9852 28.6299 15.946 28.9761 15.7054C29.1001 15.9237 29.172 16.1963 29.1715 16.4457C29.1705 16.974 28.9319 17.5413 28.3213 17.4761C27.8089 17.4214 27.6781 16.7472 27.6787 16.4154C27.679 16.2589 27.7003 16.1048 27.7396 15.9631Z" fill="#2A1200"/>
<path d="M23.4769 12.3219C22.5666 12.2049 21.6077 12.5767 20.9796 13.2864C20.777 13.5153 20.7315 13.9105 20.9593 14.1535C21.1698 14.3783 21.5409 14.4367 21.7577 14.1914C21.8227 14.1179 21.8908 14.048 21.9633 13.9829C21.9858 13.9626 22.0491 13.9259 22.0684 13.8964C22.0794 13.8886 22.0902 13.8807 22.1016 13.8731C22.1712 13.8258 22.2429 13.7822 22.3165 13.7425C22.3588 13.7197 22.4014 13.6985 22.4446 13.6783C22.4583 13.672 22.4719 13.6659 22.4858 13.6599C22.5241 13.6519 22.5676 13.6295 22.6024 13.6187C22.6477 13.6046 22.6933 13.5921 22.7394 13.5808C22.8199 13.5611 22.9014 13.5456 22.9833 13.5346C22.9948 13.533 23.0061 13.5317 23.0177 13.5304C23.062 13.5292 23.1063 13.5268 23.1508 13.5271C23.2455 13.5279 23.34 13.5353 23.4343 13.5472C23.7284 13.5851 24.0221 13.2862 24.0202 12.9688C24.0176 12.6195 23.7921 12.3625 23.4769 12.3219Z" fill="#71472D"/>
<path d="M29.2705 14.8403C28.7787 15.1079 28.2145 15.1681 27.7067 15.0211C27.5697 14.9814 27.4446 14.8617 27.386 14.7294C27.3281 14.599 27.3164 14.4124 27.3734 14.2706C27.4326 14.1234 27.5337 13.9835 27.6763 13.9136C27.8208 13.8428 27.9686 13.8246 28.1175 13.8675C28.1418 13.8746 28.1668 13.8787 28.1916 13.8845C28.2689 13.8933 28.3465 13.8956 28.4249 13.8923C28.519 13.878 28.6118 13.8551 28.7033 13.8235C28.7352 13.8088 28.7678 13.7957 28.799 13.7788C28.9337 13.7057 29.1022 13.6882 29.2402 13.7327C29.3722 13.7753 29.5076 13.8891 29.5608 14.0246C29.616 14.1649 29.6344 14.3318 29.5734 14.4834C29.5127 14.6346 29.413 14.7629 29.2705 14.8403Z" fill="#71472D"/>
</g>
<defs>
<clipPath id="clip0_95_3520">
<rect width="36" height="36" rx="5" fill="white"/>
</clipPath>
</defs>
</svg>
