<svg width="24" height="24" viewBox="0 0 24 24" fill="none" xmlns="http://www.w3.org/2000/svg">
<path fill-rule="evenodd" clip-rule="evenodd" d="M10.1259 3.75C13.534 3.75 16.3178 6.42462 16.4922 9.78884L17.9902 9.71116C17.7747 5.55395 14.3364 2.25 10.1259 2.25C5.7767 2.25 2.25094 5.77576 2.25094 10.125C2.25094 11.3999 2.55445 12.606 3.09381 13.6731C3.09345 13.6866 3.09968 13.7614 3.07052 13.9388C3.04 14.1246 2.99025 14.3249 2.93117 14.5629C2.91147 14.6423 2.89073 14.7258 2.86933 14.8143C2.79155 15.1361 2.70485 15.5264 2.69386 15.8945C2.6832 16.2513 2.73777 16.7522 3.11842 17.1327C3.49898 17.5131 3.99975 17.5677 4.35655 17.557C4.72474 17.5461 5.11504 17.4594 5.43686 17.3817C5.52562 17.3602 5.60932 17.3395 5.68883 17.3197C5.9266 17.2607 6.12683 17.211 6.31249 17.1805C6.48966 17.1514 6.56446 17.1576 6.57801 17.1572C7.52864 17.6377 8.58985 17.9311 9.7121 17.9893L9.78978 16.4913C8.87035 16.4436 8.00361 16.2014 7.22868 15.8053C6.82374 15.5983 6.35537 15.6534 6.06923 15.7004C5.8179 15.7417 5.53467 15.8121 5.28385 15.8745C5.21449 15.8918 5.14762 15.9084 5.08458 15.9236C4.76114 16.0018 4.50739 16.0519 4.31187 16.0577C4.26041 16.0592 4.22282 16.0574 4.19626 16.0546C4.19349 16.0281 4.19166 15.9906 4.19319 15.9393C4.19902 15.7439 4.24914 15.4902 4.32733 15.1668C4.34254 15.1039 4.35916 15.0371 4.37638 14.9679C4.43882 14.717 4.50934 14.4336 4.55067 14.182C4.59773 13.8956 4.65269 13.4273 4.44564 13.0223C4.00169 12.1538 3.75094 11.1698 3.75094 10.125C3.75094 6.60418 6.60512 3.75 10.1259 3.75ZM4.20671 16.1094C4.20672 16.1093 4.20657 16.1089 4.20621 16.1081L4.20671 16.1094ZM4.14269 16.0446C4.14195 16.0443 4.14155 16.0441 4.14154 16.0441L4.14269 16.0446Z" fill="#009DD9"/>
<path fill-rule="evenodd" clip-rule="evenodd" d="M15.375 10.5C12.6826 10.5 10.5 12.6826 10.5 15.375C10.5 18.0674 12.6826 20.25 15.375 20.25C16.1743 20.25 16.9266 20.0582 17.5904 19.7189C17.9603 19.5298 18.377 19.5836 18.6033 19.6208C18.8088 19.6546 19.0414 19.7125 19.2399 19.7619C19.2935 19.7752 19.3447 19.7879 19.3921 19.7994C19.6043 19.8507 19.7686 19.884 19.8961 19.8961C19.884 19.7686 19.8506 19.6045 19.7994 19.3925C19.7879 19.3451 19.7752 19.2941 19.7619 19.2405C19.7125 19.0419 19.6545 18.8092 19.6207 18.6035C19.5835 18.377 19.5298 17.9603 19.7189 17.5904C20.0582 16.9266 20.25 16.1743 20.25 15.375C20.25 12.6826 18.0674 10.5 15.375 10.5ZM19.8968 20.0558C19.8967 20.0558 19.897 20.0541 19.8979 20.0512C19.8973 20.0544 19.8969 20.0559 19.8968 20.0558ZM20.0512 19.8978C20.0541 19.897 20.0557 19.8967 20.0558 19.8968C20.0559 19.8968 20.0544 19.8973 20.0512 19.8978ZM9 15.375C9 11.8542 11.8542 9 15.375 9C18.8958 9 21.75 11.8542 21.75 15.375C21.75 16.3933 21.5107 17.3579 21.0846 18.2135C21.0854 18.2377 21.0884 18.2843 21.1009 18.3603C21.1239 18.5002 21.161 18.6499 21.2071 18.8354C21.2229 18.8991 21.2397 18.9669 21.2574 19.04C21.3187 19.2938 21.391 19.6163 21.4003 19.9252C21.4091 20.2227 21.3654 20.6726 21.0189 21.0191C20.6724 21.3654 20.2225 21.4091 19.9251 21.4002C19.6162 21.391 19.2937 21.3188 19.0398 21.2574C18.9666 21.2397 18.8986 21.2229 18.8349 21.2071C18.6495 21.1611 18.4998 21.1239 18.36 21.101C18.2842 21.0885 18.2376 21.0854 18.2133 21.0847C17.3577 21.5107 16.3933 21.75 15.375 21.75C11.8542 21.75 9 18.8958 9 15.375Z" fill="#009DD9"/>
</svg>
