<svg width="20" height="20" viewBox="0 0 20 20" fill="none" xmlns="http://www.w3.org/2000/svg">
<path fill-rule="evenodd" clip-rule="evenodd" d="M10.9861 6.99502V4.97602H9.01414V6.99602H10.9861V6.99502ZM10.9861 15.024V9.01402H9.01414V15.024H10.9861ZM10.0001 2.13892e-05C11.8271 2.13892e-05 13.5181 0.457021 15.0721 1.37002C16.557 2.21379 17.7864 3.44312 18.6301 4.92802C19.5383 6.46318 20.0118 8.2164 20.0001 10C20.0118 11.7836 19.5383 13.5369 18.6301 15.072C17.7864 16.5569 16.557 17.7862 15.0721 18.63C13.537 19.5382 11.7838 20.0117 10.0001 20C8.21653 20.0117 6.4633 19.5382 4.92814 18.63C3.44549 17.7727 2.21752 16.5364 1.37014 15.048C0.464102 13.5207 -0.00946854 11.7758 0.00014346 10C-0.00946854 8.22424 0.464102 6.47929 1.37014 4.95202C2.23115 3.46593 3.46605 2.23103 4.95214 1.37002C6.47942 0.463979 8.22437 -0.00959061 10.0001 2.13892e-05Z" fill="black"/>
</svg>
