<svg width="24" height="24" viewBox="0 0 24 24" fill="none" xmlns="http://www.w3.org/2000/svg">
<path d="M13.5523 15.269H9.85575V11.1862C11.0879 10.9287 12.173 10.4966 13.1109 9.88966C14.0672 9.26437 14.5454 8.55632 14.5454 7.76552C14.5454 7.04828 14.2512 6.50575 13.6626 6.13793C13.0925 5.75172 12.3293 5.55862 11.373 5.55862C9.80978 5.55862 8.1638 6.07356 6.43506 7.10345V3.62759C8.01667 2.54253 9.87414 2 12.0075 2C13.8098 2 15.3454 2.49655 16.6144 3.48966C17.9017 4.44598 18.5454 5.78851 18.5454 7.51724C18.5454 8.87816 18.0489 10.0368 17.0558 10.9931C16.0626 11.9678 14.8948 12.6575 13.5523 13.0621V15.269ZM11.7868 22C11.1063 22 10.5362 21.7701 10.0764 21.3103C9.61667 20.8322 9.38679 20.2529 9.38679 19.5724C9.38679 18.9103 9.61667 18.3494 10.0764 17.8897C10.5362 17.4299 11.1063 17.2 11.7868 17.2C12.4489 17.2 13.0098 17.4299 13.4695 17.8897C13.9477 18.3494 14.1868 18.9103 14.1868 19.5724C14.1868 20.2529 13.9477 20.8322 13.4695 21.3103C13.0098 21.7701 12.4489 22 11.7868 22Z" fill="#2E348C"/>
</svg>
