<svg width="48" height="48" viewBox="0 0 48 48" fill="none" xmlns="http://www.w3.org/2000/svg">
<g id="YouTube" clip-path="url(#clip0_169_1476)">
<g id="YouTube_2">
<rect id="Rectangle" y="0.000366211" width="48" height="48" rx="24" fill="#FF0000"/>
<path id="Exclude" fill-rule="evenodd" clip-rule="evenodd" d="M35.7379 14.1404C37.0229 14.4864 38.0361 15.4996 38.3821 16.7846C39.0246 19.1322 38.9999 24.0251 38.9999 24.0251C38.9999 24.0251 38.9999 28.8932 38.3821 31.2408C38.0361 32.5259 37.0229 33.539 35.7379 33.885C33.3903 34.5028 23.9999 34.5028 23.9999 34.5028C23.9999 34.5028 14.6342 34.5028 12.2619 33.8603C10.9769 33.5143 9.96375 32.5011 9.61779 31.2161C9 28.8932 9 24.0004 9 24.0004C9 24.0004 9 19.1322 9.61779 16.7846C9.96375 15.4996 11.0016 14.4617 12.2619 14.1157C14.6095 13.4979 23.9999 13.4979 23.9999 13.4979C23.9999 13.4979 33.3903 13.4979 35.7379 14.1404ZM28.8187 24.0004L21.0098 28.4979V19.5028L28.8187 24.0004Z" fill="white"/>
</g>
</g>
<defs>
<clipPath id="clip0_169_1476">
<rect width="48" height="48" fill="white" transform="translate(0 0.000366211)"/>
</clipPath>
</defs>
</svg>
