<svg width="48" height="49" viewBox="0 0 48 49" fill="none" xmlns="http://www.w3.org/2000/svg">
<g id="Odnoklassniki (OK)" clip-path="url(#clip0_90_135)">
<g id="Odnoklassniki (OK)_2">
<rect id="Rectangle" y="0.5" width="48" height="48" rx="24" fill="#EE8208"/>
<path id="Vector" d="M23.9996 13.3402C25.8852 13.3402 27.419 14.874 27.419 16.7596C27.419 18.6436 25.8848 20.1774 23.9996 20.1774C22.1151 20.1774 20.5809 18.6436 20.5809 16.7596C20.5805 14.8736 22.1155 13.3402 23.9996 13.3402ZM23.9996 25.0152C28.5543 25.0152 32.2584 21.3124 32.2584 16.7596C32.2584 12.2044 28.5547 8.5 23.9996 8.5C19.4452 8.5 15.7408 12.2048 15.7408 16.7596C15.7408 21.3124 19.4452 25.0152 23.9996 25.0152ZM27.3407 31.7517C29.0397 31.3648 30.661 30.6934 32.1362 29.766C32.6793 29.4244 33.0644 28.8809 33.2068 28.2553C33.3492 27.6297 33.2373 26.9731 32.8956 26.43C32.7266 26.1609 32.5062 25.9276 32.247 25.7437C31.9878 25.5598 31.6949 25.4287 31.3851 25.3581C31.0752 25.2875 30.7544 25.2786 30.4411 25.332C30.1278 25.3855 29.8281 25.5001 29.5592 25.6695C26.1757 27.7966 21.821 27.795 18.4403 25.6695C18.1714 25.5001 17.8718 25.3854 17.5585 25.3319C17.2452 25.2785 16.9245 25.2873 16.6146 25.358C16.3048 25.4286 16.0119 25.5597 15.7527 25.7436C15.4936 25.9276 15.2732 26.1608 15.1043 26.43C14.7625 26.973 14.6504 27.6294 14.7926 28.255C14.9348 28.8807 15.3196 29.4242 15.8625 29.766C17.3376 30.6931 18.9586 31.3644 20.6572 31.7517L16.0404 36.3693C15.5867 36.8232 15.3319 37.4387 15.332 38.0804C15.3321 38.7222 15.5871 39.3376 16.041 39.7913C16.4949 40.245 17.1104 40.4998 17.7521 40.4997C18.3939 40.4996 19.0093 40.2446 19.463 39.7907L23.9988 35.2541L28.5373 39.7911C28.7617 40.0158 29.0282 40.1941 29.3216 40.3157C29.615 40.4374 29.9294 40.5 30.247 40.5C30.5646 40.5 30.8791 40.4374 31.1725 40.3157C31.4658 40.1941 31.7323 40.0158 31.9567 39.7911C32.1818 39.5667 32.3604 39.3001 32.4822 39.0066C32.6041 38.7131 32.6668 38.3984 32.6668 38.0806C32.6668 37.7628 32.6041 37.4481 32.4822 37.1546C32.3604 36.861 32.1818 36.5945 31.9567 36.3701L27.3407 31.7517Z" fill="white"/>
</g>
</g>
<defs>
<clipPath id="clip0_90_135">
<rect width="48" height="48" fill="white" transform="translate(0 0.5)"/>
</clipPath>
</defs>
</svg>
