<svg width="48" height="49" viewBox="0 0 48 49" fill="none" xmlns="http://www.w3.org/2000/svg">
<rect y="0.5" width="48" height="48" rx="24" fill="black"/>
<path fill-rule="evenodd" clip-rule="evenodd" d="M24.548 21.062C24.5343 28.9831 24.5271 29.6462 24.4526 29.9222C24.3532 30.2898 24.1038 30.8394 23.9035 31.1318C23.452 31.7911 22.6923 32.3197 21.8642 32.5509C21.5006 32.6523 20.8336 32.683 20.4342 32.6164C19.5059 32.4618 18.6406 31.9258 18.1131 31.1785C17.6894 30.5783 17.4891 30.0107 17.4478 29.2933C17.4041 28.5351 17.5856 27.8263 17.9833 27.2017C18.3395 26.6422 18.9672 26.1004 19.5668 25.8351C20.1801 25.5637 21.0499 25.4772 21.7236 25.6205C21.9041 25.6589 22.057 25.6904 22.0635 25.6904C22.0699 25.6904 22.0752 24.8013 22.0752 23.7147V21.739L21.8525 21.7028C21.5139 21.6477 20.3175 21.6633 19.895 21.7284C18.0874 22.0067 16.5376 22.8514 15.3054 24.23C14.4299 25.2096 13.813 26.5114 13.5838 27.8634C13.4991 28.3623 13.4884 28.5717 13.509 29.3177C13.5338 30.2145 13.5977 30.6286 13.825 31.3669C13.9779 31.8633 14.3957 32.7151 14.7477 33.2478C15.1855 33.9105 16.0715 34.7965 16.7466 35.2467C17.5951 35.8127 18.4313 36.1696 19.4375 36.3954C19.8314 36.4838 20.0418 36.4983 20.95 36.4999C21.7897 36.5014 22.0836 36.4847 22.3906 36.4181C23.4724 36.1835 24.3138 35.8358 25.1579 35.2744C25.5667 35.0026 25.8607 34.755 26.2969 34.3152C26.6732 33.9359 26.9915 33.5619 27.1805 33.2768C27.7279 32.4515 28.0939 31.6023 28.3213 30.6296C28.4233 30.1933 28.4244 30.1436 28.4394 25.2782C28.4478 22.5771 28.4654 20.3671 28.4786 20.3671C28.4918 20.3671 28.6125 20.4479 28.7468 20.5465C29.6941 21.2426 31.0156 21.8452 32.2305 22.1352C32.8204 22.276 33.6909 22.3928 34.1507 22.3928H34.5V20.4378V18.4828H34.1734C33.9939 18.4828 33.6388 18.4423 33.3845 18.3927C32.1247 18.1473 31.0249 17.5448 30.1407 16.6155C29.1854 15.6115 28.6367 14.421 28.488 13.03L28.4314 12.5H26.4971H24.5629L24.548 21.062Z" fill="white"/>
</svg>
