<svg width="48" height="49" viewBox="0 0 48 49" fill="none" xmlns="http://www.w3.org/2000/svg">
<g id="Vkontakte (VK)" clip-path="url(#clip0_90_139)">
<g id="Vkontakte (VK)_2">
<rect id="Rectangle" y="0.5" width="48" height="48" rx="24" fill="#5181B8"/>
<path id="Vector" fill-rule="evenodd" clip-rule="evenodd" d="M39.2658 17.0346C39.4884 16.2929 39.2658 15.7478 38.2071 15.7478H34.7062C33.816 15.7478 33.4059 16.2187 33.1834 16.738C33.1834 16.738 31.403 21.0773 28.8809 23.896C28.0649 24.7119 27.6941 24.9712 27.249 24.9712C27.0264 24.9712 26.7044 24.7119 26.7044 23.9702V17.0346C26.7044 16.1444 26.4461 15.7478 25.7041 15.7478H20.2028C19.6467 15.7478 19.3121 16.1609 19.3121 16.5525C19.3121 17.3964 20.5729 17.591 20.703 19.9645V25.12C20.703 26.2503 20.4989 26.4553 20.0538 26.4553C18.867 26.4553 15.9804 22.0963 14.268 17.1089C13.9324 16.1394 13.5958 15.7478 12.7011 15.7478H9.20028C8.20005 15.7478 8 16.2187 8 16.738C8 17.6653 9.18703 22.2643 13.5263 28.3467C16.4195 32.5002 20.4949 34.7522 24.2038 34.7522C26.4293 34.7522 26.7044 34.2521 26.7044 33.3907V30.2512C26.7044 29.251 26.9152 29.0514 27.6196 29.0514C28.1392 29.0514 29.0292 29.311 31.1064 31.3137C33.4799 33.687 33.871 34.7522 35.2064 34.7522H38.7072C39.7074 34.7522 40.2075 34.2521 39.919 33.2651C39.6034 32.2814 38.4701 30.8546 36.9663 29.1627C36.1503 28.1982 34.9263 27.1597 34.5557 26.6406C34.0363 25.9729 34.1846 25.6764 34.5557 25.0832C34.5557 25.0832 38.8207 19.0748 39.2658 17.0349V17.0346Z" fill="white"/>
</g>
</g>
<defs>
<clipPath id="clip0_90_139">
<rect width="48" height="48" fill="white" transform="translate(0 0.5)"/>
</clipPath>
</defs>
</svg>
