<svg width="48" height="49" viewBox="0 0 48 49" fill="none" xmlns="http://www.w3.org/2000/svg">
<g id="Telegram" clip-path="url(#clip0_90_156)">
<g id="Telegram_2">
<rect id="Rectangle" y="0.5" width="48" height="48" rx="24" fill="#419FD9"/>
<path id="Exclude" fill-rule="evenodd" clip-rule="evenodd" d="M29.3351 36.3843C31.0126 37.1182 31.6417 35.5805 31.6417 35.5805L36.0801 13.2836C36.0451 11.7808 34.0181 12.6895 34.0181 12.6895L9.17002 22.44C9.17002 22.44 7.98179 22.8594 8.08663 23.5933C8.19147 24.3272 9.13507 24.6767 9.13507 24.6767L15.3908 26.7736C15.3908 26.7736 17.278 32.9594 17.6624 34.1476C18.0119 35.3009 18.3264 35.3359 18.3264 35.3359C18.6759 35.4757 18.9904 35.231 18.9904 35.231L23.0444 31.5615L29.3351 36.3843ZM30.4185 17.2327C30.4185 17.2327 31.2922 16.7085 31.2572 17.2327C31.2572 17.2327 31.397 17.3026 30.9427 17.7919C30.5233 18.2112 20.633 27.0881 19.305 28.2763C19.2001 28.3462 19.1302 28.451 19.1302 28.5908L18.7458 31.876C18.6759 32.2254 18.2216 32.2604 18.1168 31.9459L16.4742 26.5638C16.4043 26.3542 16.4742 26.1095 16.6839 25.9697L30.4185 17.2327Z" fill="white"/>
</g>
</g>
<defs>
<clipPath id="clip0_90_156">
<rect width="48" height="48" fill="white" transform="translate(0 0.5)"/>
</clipPath>
</defs>
</svg>
