<svg width="48" height="49" viewBox="0 0 48 49" fill="none" xmlns="http://www.w3.org/2000/svg">
<g id="WhatsApp" clip-path="url(#clip0_90_143)">
<g id="WhatsApp_2">
<rect id="Rectangle" y="0.5" width="48" height="48" rx="24" fill="#0DC143"/>
<path id="Vector" d="M34.7504 13.7115C32.1775 11.0628 28.6207 9.625 24.9883 9.625C17.2694 9.625 11.064 15.9061 11.1396 23.5493C11.1396 25.9709 11.8207 28.3169 12.9558 30.4358L10.9883 37.625L18.3288 35.7331C20.3721 36.8682 22.6423 37.398 24.9126 37.398C32.5558 37.398 38.7613 31.1169 38.7613 23.4736C38.7613 19.7655 37.3234 16.2845 34.7504 13.7115ZM24.9883 35.052C22.945 35.052 20.9018 34.5223 19.1613 33.4628L18.7072 33.2358L14.318 34.3709L15.4531 30.0574L15.1504 29.6034C11.8207 24.2304 13.4099 17.1169 18.8586 13.7872C24.3072 10.4574 31.345 12.0466 34.6748 17.4953C38.0045 22.9439 36.4153 29.9818 30.9667 33.3115C29.2261 34.4466 27.1072 35.052 24.9883 35.052ZM31.6477 26.652L30.8153 26.2736C30.8153 26.2736 29.6045 25.7439 28.8477 25.3655C28.7721 25.3655 28.6964 25.2899 28.6207 25.2899C28.3937 25.2899 28.2423 25.3655 28.091 25.4412C28.091 25.4412 28.0153 25.5169 26.9558 26.7277C26.8802 26.8791 26.7288 26.9547 26.5775 26.9547H26.5018C26.4261 26.9547 26.2748 26.8791 26.1991 26.8034L25.8207 26.652C24.9883 26.2736 24.2315 25.8196 23.6261 25.2142C23.4748 25.0628 23.2477 24.9115 23.0964 24.7601C22.5667 24.2304 22.0369 23.625 21.6586 22.9439L21.5829 22.7926C21.5072 22.7169 21.5072 22.6412 21.4315 22.4899C21.4315 22.3385 21.4315 22.1872 21.5072 22.1115C21.5072 22.1115 21.8099 21.7331 22.0369 21.5061C22.1883 21.3547 22.264 21.1277 22.4153 20.9764C22.5667 20.7493 22.6423 20.4466 22.5667 20.2196C22.491 19.8412 21.5829 17.798 21.3558 17.3439C21.2045 17.1169 21.0531 17.0412 20.8261 16.9655H20.5991C20.4477 16.9655 20.2207 16.9655 19.9937 16.9655C19.8423 16.9655 19.691 17.0412 19.5396 17.0412L19.464 17.1169C19.3126 17.1926 19.1613 17.3439 19.0099 17.4196C18.8586 17.5709 18.7829 17.7223 18.6315 17.8736C18.1018 18.5547 17.7991 19.3872 17.7991 20.2196C17.7991 20.825 17.9504 21.4304 18.1775 21.9601L18.2531 22.1872C18.9342 23.625 19.8423 24.9115 21.0531 26.0466L21.3558 26.3493C21.5829 26.5764 21.8099 26.7277 21.9613 26.9547C23.5504 28.3169 25.3667 29.3007 27.4099 29.8304C27.6369 29.9061 27.9396 29.9061 28.1667 29.9818C28.3937 29.9818 28.6964 29.9818 28.9234 29.9818C29.3018 29.9818 29.7558 29.8304 30.0586 29.6791C30.2856 29.5277 30.4369 29.5277 30.5883 29.3764L30.7396 29.225C30.891 29.0736 31.0423 28.998 31.1937 28.8466C31.345 28.6953 31.4964 28.5439 31.5721 28.3926C31.7234 28.0899 31.7991 27.7115 31.8748 27.3331C31.8748 27.1818 31.8748 26.9547 31.8748 26.8034C31.8748 26.8034 31.7991 26.7277 31.6477 26.652Z" fill="white"/>
</g>
</g>
<defs>
<clipPath id="clip0_90_143">
<rect width="48" height="48" fill="white" transform="translate(0 0.5)"/>
</clipPath>
</defs>
</svg>
