<svg width="48" height="49" viewBox="0 0 48 49" fill="none" xmlns="http://www.w3.org/2000/svg">
<g id="Viber" clip-path="url(#clip0_90_147)">
<g id="Viber_2">
<rect id="Rectangle" y="0.5" width="48" height="48" rx="24" fill="#675DA9"/>
<g id="Group">
<path id="Vector" d="M35.754 12.6845C34.9601 11.9547 31.7461 9.61782 24.5819 9.58581C24.5819 9.58581 16.1372 9.07362 12.0205 12.851C9.72847 15.143 8.92178 18.4915 8.83855 22.653C8.75532 26.8081 8.64648 34.5998 16.1564 36.7125H16.1628L16.1564 39.9329C16.1564 39.9329 16.1116 41.239 16.9695 41.5015C18.0067 41.8216 18.6213 40.8292 19.6137 39.76C20.1579 39.171 20.907 38.3131 21.4768 37.6537C26.6114 38.0826 30.5617 37.0967 31.0099 36.9494C32.047 36.6101 37.918 35.861 38.8719 28.0694C39.8579 20.0536 38.3918 14.9766 35.754 12.6845ZM36.6247 27.506C35.818 34.0107 31.0611 34.4205 30.184 34.7022C29.8126 34.8238 26.3425 35.6882 21.9761 35.4C21.9761 35.4 18.7238 39.3247 17.7122 40.3427C17.5521 40.5027 17.3665 40.5667 17.2448 40.5347C17.072 40.4899 17.0207 40.285 17.0271 39.9841C17.0271 39.5488 17.0527 34.6254 17.0527 34.6254C17.0463 34.6254 17.0463 34.6254 17.0527 34.6254C10.6952 32.8647 11.0666 26.2319 11.137 22.7618C11.2074 19.2918 11.8605 16.4427 13.8004 14.5284C17.2768 11.3785 24.4539 11.8458 24.4539 11.8458C30.5105 11.8714 33.4107 13.6961 34.083 14.3043C36.3174 16.225 37.457 20.8027 36.6247 27.506Z" fill="white"/>
<path id="Vector_2" d="M27.5331 22.8835C27.3218 22.8835 27.1425 22.717 27.1297 22.4993C27.0593 21.1228 26.4127 20.4506 25.0938 20.3802C24.8697 20.3674 24.6968 20.1753 24.7097 19.9512C24.7225 19.7271 24.9145 19.5543 25.1386 19.5671C26.88 19.6631 27.8532 20.6619 27.9428 22.4545C27.9556 22.6786 27.7828 22.8707 27.5587 22.8771C27.5459 22.8835 27.5395 22.8835 27.5331 22.8835Z" fill="white"/>
<path id="Vector_3" d="M29.6077 23.5751H29.6013C29.3772 23.5687 29.1979 23.383 29.2043 23.1589C29.2363 21.776 28.8394 20.6556 27.9943 19.7337C27.1556 18.8118 25.9968 18.3124 24.4666 18.2035C24.2425 18.1843 24.0761 17.9923 24.0953 17.7682C24.1145 17.5441 24.3065 17.3776 24.5306 17.3968C26.2593 17.5249 27.6229 18.1267 28.5961 19.1895C29.5757 20.2587 30.0494 21.5968 30.0174 23.1781C30.011 23.4022 29.8254 23.5751 29.6077 23.5751Z" fill="white"/>
<path id="Vector_4" d="M31.733 24.4072C31.5089 24.4072 31.3296 24.2279 31.3296 24.0038C31.3104 21.5261 30.5998 19.6374 29.1528 18.2225C27.7251 16.8268 25.9133 16.1161 23.7813 16.0969C23.5572 16.0969 23.3779 15.9113 23.3779 15.6872C23.3779 15.4631 23.5636 15.2838 23.7813 15.2838C26.1309 15.3031 28.1285 16.0905 29.7098 17.6399C31.2976 19.1893 32.1107 21.3277 32.1363 23.991C32.1427 24.2215 31.9635 24.4072 31.733 24.4072C31.7394 24.4072 31.7394 24.4072 31.733 24.4072Z" fill="white"/>
<path id="Vector_5" d="M25.1897 27.8964C25.1897 27.8964 25.7595 27.9476 26.0668 27.5699L26.6622 26.8208C26.9503 26.4495 27.6482 26.2126 28.3268 26.5903C28.7046 26.8016 29.3896 27.2242 29.8122 27.5379C30.2667 27.8708 31.1887 28.6391 31.1951 28.6455C31.6368 29.0168 31.7393 29.561 31.4384 30.1436C31.4384 30.1436 31.4384 30.15 31.4384 30.1564C31.131 30.7006 30.7149 31.2128 30.1963 31.6866C30.1899 31.6866 30.1899 31.693 30.1835 31.693C29.7545 32.0515 29.332 32.2564 28.9222 32.3012C28.871 32.314 28.8134 32.314 28.7366 32.314C28.5573 32.314 28.378 32.2884 28.1988 32.2308L28.186 32.2116C27.5457 32.0323 26.4829 31.5842 24.7159 30.6046C23.5635 29.9708 22.6095 29.3241 21.7964 28.6775C21.3675 28.3382 20.9321 27.9604 20.484 27.5123C20.4711 27.4995 20.4519 27.4803 20.4391 27.4675C20.4263 27.4547 20.4071 27.4354 20.3943 27.4226C20.3815 27.4098 20.3623 27.3906 20.3495 27.3778C20.3367 27.365 20.3175 27.3458 20.3047 27.333C19.8629 26.8848 19.4788 26.4495 19.1395 26.0205C18.4928 25.2138 17.8462 24.2535 17.2124 23.1011C16.2328 21.3276 15.7846 20.2648 15.6054 19.631L15.5862 19.6182C15.5285 19.4389 15.5029 19.2597 15.5029 19.0804C15.5029 19.0036 15.5029 18.9459 15.5157 18.8947C15.567 18.4786 15.7718 18.0624 16.124 17.6335C16.124 17.6271 16.1304 17.6271 16.1304 17.6207C16.6041 17.0957 17.1163 16.6859 17.6605 16.3786C17.6605 16.3786 17.6669 16.3786 17.6733 16.3786C18.2495 16.0777 18.7937 16.1801 19.1715 16.6219C19.1715 16.6219 19.9462 17.5502 20.2791 18.0048C20.5928 18.4338 21.0153 19.1124 21.2266 19.4901C21.6044 20.1688 21.3675 20.8666 20.9961 21.1547L20.2471 21.7502C19.8693 22.0575 19.9205 22.6273 19.9205 22.6273C19.9205 22.6273 21.0282 26.84 25.1897 27.8964Z" fill="white"/>
</g>
</g>
</g>
<defs>
<clipPath id="clip0_90_147">
<rect width="48" height="48" fill="white" transform="translate(0 0.5)"/>
</clipPath>
</defs>
</svg>
