<svg width="24" height="24" viewBox="0 0 24 24" fill="none" xmlns="http://www.w3.org/2000/svg">
<path fill-rule="evenodd" clip-rule="evenodd" d="M15.4902 10C16.0425 10 16.4902 9.55228 16.4902 9C16.4902 6.79086 14.6994 5 12.4902 5C11.9379 5 11.4902 5.44772 11.4902 6C11.4902 6.55228 11.9379 7 12.4902 7C13.5948 7 14.4902 7.89543 14.4902 9C14.4902 9.55228 14.9379 10 15.4902 10ZM5.49023 9C5.49023 10.7765 6.15199 12.3984 7.24243 13.6327L8.28301 17.2747C8.40567 17.704 8.79806 18 9.24454 18H15.7359C16.1824 18 16.5748 17.704 16.6975 17.2747L17.738 13.6327C18.8285 12.3984 19.4902 10.7765 19.4902 9C19.4902 5.13401 16.3562 2 12.4902 2C8.62424 2 5.49023 5.13401 5.49023 9ZM14.9816 16H9.99884L9.04108 12.6479L8.74128 12.3085C7.93897 11.4004 7.49023 10.2377 7.49023 9C7.49023 6.23858 9.72881 4 12.4902 4C15.2517 4 17.4902 6.23858 17.4902 9C17.4902 10.2377 17.0415 11.4004 16.2392 12.3085L15.9394 12.6479L14.9816 16ZM13.4902 22C14.0425 22 14.4902 21.5523 14.4902 21H15.4902C16.0425 21 16.4902 20.5523 16.4902 20V19.4C16.4902 19.1791 16.3111 19 16.0902 19H8.89023C8.66932 19 8.49023 19.1791 8.49023 19.4V20C8.49023 20.5523 8.93795 21 9.49023 21H10.4902C10.4902 21.5523 10.9379 22 11.4902 22H13.4902Z" fill="#2E348C"/>
</svg>
