<svg width="210" height="67" viewBox="0 0 210 67" fill="none" xmlns="http://www.w3.org/2000/svg">
<path d="M20.9823 51.3334C16.9485 51.3334 13.3457 50.7072 10.174 49.4548C7.01849 48.2023 4.5299 46.5026 2.70818 44.3556C0.902726 42.2086 0 39.785 0 37.085C0 35.0193 0.512358 33.1325 1.53707 31.4246C2.57806 29.7168 3.97688 28.3017 5.73353 27.1794C7.49019 26.0408 9.45016 25.3089 11.6135 24.9836V24.5932C8.76702 24.1052 6.42481 22.8447 4.58683 20.8115C2.76511 18.7621 1.85425 16.3467 1.85425 13.5653C1.85425 10.9466 2.68378 8.62063 4.34285 6.58746C6.00191 4.53803 8.27093 2.92776 11.1499 1.75666C14.0289 0.585552 17.3063 0 20.9823 0C24.6583 0 27.9357 0.593685 30.8147 1.78106C33.6936 2.95216 35.9627 4.56243 37.6217 6.61186C39.2808 8.64503 40.1103 10.9628 40.1103 13.5653C40.1103 16.3629 39.1832 18.7783 37.329 20.8115C35.4747 22.8447 33.1488 24.1052 30.3511 24.5932V24.9836C32.4981 25.3089 34.45 26.0408 36.2066 27.1794C37.9633 28.3017 39.3621 29.7168 40.4031 31.4246C41.4441 33.1325 41.9646 35.0193 41.9646 37.085C41.9646 39.785 41.0537 42.2086 39.232 44.3556C37.4265 46.5026 34.938 48.2023 31.7662 49.4548C28.6107 50.7072 25.0161 51.3334 20.9823 51.3334ZM20.9823 41.9646C22.2673 41.9646 23.4058 41.7043 24.398 41.1838C25.3902 40.6633 26.1709 39.9477 26.7402 39.0368C27.3258 38.1097 27.6185 37.0687 27.6185 35.9139C27.6185 34.759 27.3258 33.7343 26.7402 32.8397C26.1709 31.9451 25.3902 31.2457 24.398 30.7415C23.4058 30.221 22.2673 29.9608 20.9823 29.9608C19.7136 29.9608 18.575 30.221 17.5666 30.7415C16.5744 31.2457 15.7855 31.9451 15.2 32.8397C14.6307 33.7343 14.346 34.759 14.346 35.9139C14.346 37.0687 14.6307 38.1016 15.2 39.0124C15.7855 39.9233 16.5744 40.6471 17.5666 41.1838C18.575 41.7043 19.7136 41.9646 20.9823 41.9646ZM20.9823 20.5919C22.1209 20.5919 23.1293 20.3561 24.0076 19.8844C24.886 19.4127 25.5772 18.7621 26.0815 17.9325C26.5857 17.103 26.8378 16.1677 26.8378 15.1268C26.8378 14.0858 26.5857 13.1668 26.0815 12.3698C25.5772 11.5565 24.886 10.9222 24.0076 10.4667C23.1293 9.99505 22.1209 9.7592 20.9823 9.7592C19.86 9.7592 18.8515 9.99505 17.9569 10.4667C17.0786 10.9222 16.3873 11.5565 15.8831 12.3698C15.3789 13.1668 15.1268 14.0858 15.1268 15.1268C15.1268 16.1677 15.3789 17.103 15.8831 17.9325C16.3873 18.7458 17.0786 19.3964 17.9569 19.8844C18.8515 20.3561 19.86 20.5919 20.9823 20.5919Z" fill="#FF004F"/>
<path d="M21.3141 0.1866V5.64863L26.8792 6.16392L28.0128 7.50366V43.6767L26.8792 45.0165L21.3141 45.5318V50.9938H54.9107C65.0103 50.9938 69.6479 49.0357 71.5029 48.0051C77.2741 44.9134 78.4078 39.8636 78.4078 36.2566C78.4078 31.516 76.0375 28.8365 74.3885 27.4968C72.0182 25.5387 67.8959 24.302 64.5981 23.9928V23.7867C67.6898 23.2714 70.4724 21.9317 72.3274 20.1797C74.8008 17.8094 75.7283 15.0268 75.7283 12.0382C75.7283 7.50366 73.6671 4.72111 70.3693 2.86609C67.5868 1.32023 63.2584 0.1866 54.3954 0.1866H21.3141ZM44.8111 7.19449C46.46 6.98838 48.4181 6.78226 50.3762 6.78226C52.3343 6.78226 54.8077 6.88532 56.6627 8.63729C58.3116 10.1831 58.6208 12.2443 58.6208 13.8932C58.6208 16.3666 57.8994 18.0155 57.0749 18.943C55.1168 21.3133 51.6129 21.3133 49.6548 21.3133C47.7998 21.3133 46.0478 21.2103 44.8111 21.1072V7.19449ZM44.8111 27.909C46.0478 27.8059 48.5212 27.4968 50.6854 27.4968C52.7465 27.4968 55.426 27.7029 57.281 29.3518C58.7238 30.5885 59.8575 32.8557 59.8575 35.8444C59.8575 38.2147 59.1361 40.585 57.6933 42.1309C55.6321 44.192 52.4374 44.3981 50.5823 44.3981C48.212 44.3981 46.2539 44.089 44.8111 43.7798V27.909Z" fill="#009DD9"/>
<path d="M80.152 50.9938H110.245V45.5318L105.401 45.0165L104.061 43.6767V41.1003L123.23 19.3552V43.6767L121.89 45.0165L117.046 45.5318V50.9938H147.139V45.5318L141.574 45.0165L140.44 43.6767V7.50366L141.574 6.16392L147.139 5.64863V0.1866H117.046V5.64863L121.89 6.16392L123.23 7.50366V9.87397L104.061 31.619V7.50366L105.401 6.16392L110.245 5.64863V0.1866H80.152V5.64863L85.717 6.16392L86.8507 7.50366V43.6767L85.717 45.0165L80.152 45.5318V50.9938Z" fill="#009DD9"/>
<path d="M160.017 0.1866V5.64863L167.025 6.16392L168.159 7.50366C167.437 11.8321 165.995 18.84 163.109 26.6723C160.12 34.8138 156.41 41.3064 154.555 44.3981H149.402V66.6585H158.471L160.429 52.7458L162.181 50.9938H197.221L198.973 52.7458L200.931 66.6585H210V44.3981H203.714L202.477 43.3676V7.50366L203.61 6.16392L209.176 5.64863V0.1866H160.017ZM164.036 44.3981C166.819 39.3483 169.499 33.4741 171.457 28.012C173.93 21.0042 175.785 12.6565 176.816 6.57614H185.266V44.3981H164.036Z" fill="#009DD9"/>
<path fill-rule="evenodd" clip-rule="evenodd" d="M24.4265 0.1866C26.7382 0.446527 28.8676 0.978014 30.8147 1.78106C33.6936 2.95217 35.9627 4.56243 37.6217 6.61187C39.2808 8.64503 40.1103 10.9628 40.1103 13.5653C40.1103 16.3629 39.1832 18.7783 37.3289 20.8115C35.4747 22.8447 33.1487 24.1052 30.3511 24.5932V24.9836C32.4981 25.3089 34.45 26.0408 36.2066 27.1794C37.9633 28.3017 39.3621 29.7168 40.4031 31.4246C41.4441 33.1325 41.9646 35.0193 41.9646 37.085C41.9646 39.785 41.0537 42.2086 39.232 44.3556C37.4265 46.5026 34.9379 48.2023 31.7662 49.4548C29.9524 50.1747 27.9934 50.6877 25.8894 50.9938H21.3141V45.5318L26.8792 45.0165L28.0128 43.6767V7.50366L26.8792 6.16392L21.3141 5.64863V0.1866L24.4265 0.1866Z" fill="#2E348C"/>
</svg>
