<svg width="198" height="198" viewBox="0 0 198 198" fill="none" xmlns="http://www.w3.org/2000/svg">
<rect x="2" width="195" height="195" fill="white"/>
<path d="M118.282 36.2487C118.282 36.2487 156.803 42.2878 153.882 97.2856C153.872 97.4895 158.336 100.459 158.686 100.777C161.799 103.598 164.411 107.211 165.553 111.437C169.62 126.487 155.079 141.995 143.321 146.111C138.929 147.648 134.286 148.394 129.634 148.53C99.3954 149.412 59.3605 130.155 57.3044 92.5471C57.2307 91.1977 57.2125 89.847 57.2472 88.4993C57.4295 81.3584 59.1495 74.404 61.7419 67.9467C61.7408 67.947 78.5701 26.1217 118.282 36.2487Z" fill="#FEE7C9"/>
<g style="mix-blend-mode:multiply" opacity="0.5">
<path d="M154.857 97.8661C154.44 98.8904 154.023 100.199 153.907 100.948C153.41 104.158 154.506 107.473 156.411 109.856C158.219 112.119 160.801 113.586 163.302 114.14C164.147 114.326 165.169 114.422 166.063 114.452C165.124 105.155 157.569 99.577 154.857 97.8661Z" fill="#FEB3A4"/>
</g>
<g style="mix-blend-mode:multiply" opacity="0.5">
<path d="M100.557 122.301C107.712 120.759 112.155 113.205 110.481 105.429C108.806 97.6541 101.647 92.6016 94.4915 94.1443C87.3359 95.6871 82.8929 103.241 84.5678 111.016C86.2427 118.791 93.4012 123.844 100.557 122.301Z" fill="#FEB3A4"/>
</g>
<path opacity="0.3" d="M135.587 100.553C135.587 100.553 141.698 94.7275 146.428 100.205L135.587 100.553Z" fill="#633B1D"/>
<path d="M78.6109 129.579C58.268 139.795 39.8067 114.181 45.7212 99.7828C49.4941 90.5985 60.4933 89.884 66.8665 98.2728C70.6277 103.224 73.671 109.552 75.3987 115.606" fill="#FEE7C9"/>
<path opacity="0.3" d="M61.8571 106.723C64.4743 109.391 66.578 113.348 69.164 115.555C68.6861 111.862 67.9235 107.917 66.1329 104.589C64.3149 101.208 61.0084 98.4233 57.6416 98.6529C53.4691 98.9378 50.0334 103.807 49.5915 108.221C49.8556 105.579 55.1594 103.791 57.1838 104.042C60.3535 110.028 61.5803 121.826 61.5803 121.826C64.2214 115.147 63.1525 109.893 61.8571 106.723Z" fill="#633B1D"/>
<path d="M131.918 52.8321C122.388 66.0422 100.837 93.1965 71.2225 102.884C69.2189 99.4591 65.6515 95.8679 59.2008 95.9854C51.1374 96.1321 48.2053 102.003 48.2053 102.003C48.2053 102.003 38.8224 117.709 60.5202 127.69C66.5311 128.864 68.437 128.864 73.275 126.809C76.5492 129.353 86.9387 138.023 90.5746 139.432C89.646 144.374 88.0067 156.694 90.2352 162.33C85.9836 162.721 75.6208 164.884 67.4108 160.422C66.5841 155.395 65.8571 148.813 67.1511 146.303C65.6062 148.831 62.8196 154.6 62.8196 157.926C58.1282 156.312 47.6899 151.82 43.4676 146.771C36.9192 115.947 34.5708 41.2364 100.837 34.9249C106.653 34.2399 121.479 34.8368 131.331 41.53C143.646 49.8964 149.804 61.0517 152.15 72.207C147.116 69.8585 136.023 62.6957 131.918 52.8321Z" fill="#E2BA87"/>
<path d="M156.108 157.926C154.114 155.108 155.277 142.319 156.108 137.964C147.898 144.863 143.06 148.239 126.2 148.679C129.132 153.083 140.568 154.697 141.887 155.284L144.233 153.67V156.018C147.399 157.075 153.469 157.731 156.108 157.926Z" fill="#E2BA87"/>
<mask id="mask0_169_1405" style="mask-type:alpha" maskUnits="userSpaceOnUse" x="100" y="34" width="53" height="39">
<path d="M130.599 41.2365C120.747 34.5433 106.653 34.24 100.838 34.9249C102.444 43.6339 107.398 62.1673 121.069 66.6294C125.078 61.428 129.863 56.5869 131.919 52.8321C136.023 62.6957 147.117 69.8586 152.15 72.207C149.805 61.0518 142.914 49.6029 130.599 41.2365Z" fill="#E2BA87"/>
</mask>
<g mask="url(#mask0_169_1405)">
<path d="M128.38 51.3096C128.38 51.3096 125.953 48.4302 120.659 48.9112C120.659 48.9112 124.409 46.8725 126.835 47.1123C126.835 47.1123 120.218 42.1942 110.514 45.3135C110.514 45.3135 117.351 40.5152 122.755 41.1148C122.755 41.1148 117.021 38.5964 113.381 39.1961C113.381 39.1961 116.249 35.5971 119.998 35.717C119.998 35.717 117.02 30.4391 112.388 28.7601C112.388 28.7601 121.652 31.3997 124.077 33.3185C129.481 35.5971 134.444 42.3154 134.444 42.3154C132.79 41.356 130.143 41.5958 130.143 41.5958C134.444 44.2354 137.753 49.1523 137.753 49.1523C135.658 47.7132 133.121 48.1929 133.121 48.1929C137.201 52.2716 138.524 57.5495 138.524 57.5495C137.973 55.8706 134.003 53.8306 134.003 53.8306C135.546 56.5901 135.877 61.0273 135.877 61.0273L132.568 56.7088C132.568 56.7088 125.841 62.3465 124.076 63.066C124.076 63.066 129.149 57.7881 129.48 55.3896C129.48 55.3896 121.87 57.4283 115.805 58.2691C115.807 58.2665 124.299 51.7893 128.38 51.3096Z" fill="#D9AC74"/>
</g>
<path d="M111.393 65.7487C107.288 70.9349 93.9179 83.5384 73.2757 92.4627C79.8241 88.3528 96.6155 77.2563 111.393 65.7487Z" fill="#D9AC74"/>
<path d="M56.8557 92.4627C68.8188 67.0991 93.1165 52.7342 103.77 48.7222C76.3251 53.4192 58.0286 80.5245 52.3109 93.4901C53.3665 93.0204 55.7806 92.6094 56.8557 92.4627Z" fill="#D9AC74"/>
<path d="M50.6983 123.14C51.2847 123.874 52.9853 125.018 53.9236 125.488C53.5455 131.924 52.9722 144.415 53.2662 149.956C53.3438 150.738 53.4175 151.446 53.4838 152.055C53.3851 151.578 53.3141 150.859 53.2662 149.956C52.7144 144.396 51.9587 135.038 52.1643 129.892C51.0892 133.806 49.2615 135.117 50.5516 151.321C49.1833 140.851 47.0625 129.481 50.6983 123.14Z" fill="#D9AC74"/>
<path d="M148.778 143.689C149.599 143.337 150.977 142.368 151.564 141.927C150.508 143.689 150.928 152.545 151.271 156.752C150.567 156.165 150.098 153.963 149.951 152.936C149.482 154.462 148.583 154.551 148.778 156.752C147.488 153.817 148.632 148.386 148.778 143.689Z" fill="#D9AC74"/>
<path d="M82.8052 141.34C81.3977 154.14 82.0721 157.633 83.2449 163.064H80.3128H77.3807C75.2695 152.73 80.6549 147.799 82.8052 141.34Z" fill="#D9AC74"/>
<path d="M142.17 114.658C144.91 114.734 147.537 113.949 149.799 111.592C150.983 110.36 152.183 109.682 153.882 110.736C157.948 113.26 158.906 119.565 157.813 123.793C156.613 128.432 152.997 132.172 148.831 134.612C137.62 141.176 129.021 139.699 117.549 135.503C108.519 132.201 96.3106 125.545 99.4052 114.089C103.237 99.9063 119.753 106.716 129.072 110.542C133.029 112.168 137.746 114.535 142.17 114.658Z" fill="white"/>
<mask id="mask1_169_1405" style="mask-type:alpha" maskUnits="userSpaceOnUse" x="98" y="105" width="61" height="35">
<path d="M142.17 114.658C144.91 114.734 147.537 113.949 149.799 111.592C150.983 110.36 152.183 109.682 153.882 110.736C157.948 113.26 158.906 119.565 157.813 123.793C156.613 128.432 152.997 132.172 148.831 134.612C137.62 141.176 129.021 139.699 117.549 135.503C108.519 132.201 96.3106 125.545 99.4052 114.089C103.237 99.9063 119.753 106.716 129.072 110.542C133.029 112.168 137.746 114.535 142.17 114.658Z" fill="white"/>
</mask>
<g mask="url(#mask1_169_1405)">
<path fill-rule="evenodd" clip-rule="evenodd" d="M104.768 130.412L116.504 100.724L118.138 101.373L106.402 131.061L104.768 130.412ZM128.883 140.005L136.99 108.853L138.69 109.298L130.584 140.449L128.883 140.005ZM153.01 132.483L148.537 109.645L150.262 109.305L154.735 132.144L153.01 132.483Z" fill="#D1D3D4"/>
</g>
<path d="M126.063 91.2946C126.056 94.7809 124.239 97.6106 120.466 97.0306C117.75 96.3017 115.942 94.3828 115.949 90.7267C115.956 86.8958 118.182 84.41 120.49 84.4056C123.576 84.3997 126.07 87.8083 126.063 91.2946Z" fill="#2A1200"/>
<path fill-rule="evenodd" clip-rule="evenodd" d="M145.453 89.0969C147.11 89.1947 149.391 89.0212 150.923 87.9572C151.472 88.9227 151.79 90.1287 151.788 91.2318C151.783 93.5687 150.728 96.0783 148.027 95.7898C145.76 95.5477 145.181 92.5656 145.184 91.0976C145.185 90.4055 145.28 89.7237 145.453 89.0969Z" fill="#2A1200"/>
<path d="M126.599 72.9896C122.572 72.4721 118.33 74.1169 115.551 77.2564C114.655 78.2687 114.454 80.0172 115.462 81.092C116.393 82.0864 118.035 82.3447 118.994 81.2598C119.281 80.9346 119.582 80.6254 119.903 80.3374C120.003 80.2477 120.282 80.0851 120.368 79.9548C120.417 79.92 120.465 79.8853 120.515 79.8516C120.823 79.6424 121.14 79.4497 121.466 79.2737C121.652 79.173 121.841 79.0792 122.032 78.9898C122.092 78.9619 122.153 78.9352 122.215 78.9083C122.384 78.8729 122.576 78.774 122.73 78.7262C122.931 78.6638 123.132 78.6084 123.336 78.5585C123.692 78.4716 124.053 78.403 124.415 78.354C124.466 78.3471 124.516 78.3415 124.567 78.3358C124.763 78.3301 124.959 78.3198 125.156 78.3211C125.575 78.3244 125.993 78.3571 126.41 78.4099C127.711 78.5776 129.01 77.2553 129.002 75.8514C128.99 74.3061 127.993 73.1692 126.599 72.9896Z" fill="#71472D"/>
<path d="M152.222 84.1302C150.046 85.3138 147.551 85.5799 145.304 84.9297C144.698 84.7541 144.145 84.2247 143.885 83.6393C143.63 83.0627 143.578 82.237 143.83 81.6098C144.092 80.9589 144.539 80.3398 145.17 80.0309C145.809 79.7176 146.463 79.637 147.121 79.8267C147.229 79.8581 147.34 79.8762 147.449 79.9021C147.791 79.9409 148.135 79.9512 148.481 79.9365C148.898 79.8734 149.308 79.7717 149.713 79.6321C149.854 79.5671 149.998 79.5094 150.136 79.4346C150.732 79.1109 151.477 79.0337 152.088 79.2304C152.672 79.4187 153.271 79.9221 153.506 80.5217C153.75 81.1425 153.832 81.8805 153.562 82.5512C153.293 83.2199 152.852 83.7874 152.222 84.1302Z" fill="#71472D"/>
</svg>
